<mxfile host="app.diagrams.net" modified="2023-05-22T12:10:46.919Z" agent="Mozilla/5.0 (Windows NT 10.0; Win64; x64) AppleWebKit/537.36 (KHTML, like Gecko) Chrome/113.0.0.0 Safari/537.36" etag="DzJ_FVwJsbaV0wLy5I86" version="21.3.2" type="device">
  <diagram name="Page-1" id="S5oBF_SHKBVZ-R0hcio5">
    <mxGraphModel dx="3003" dy="1210" grid="1" gridSize="10" guides="1" tooltips="1" connect="1" arrows="1" fold="1" page="1" pageScale="1" pageWidth="4681" pageHeight="3300" math="0" shadow="0">
      <root>
        <mxCell id="0" />
        <mxCell id="1" parent="0" />
        <mxCell id="q-JimnCEgB8Lu71b-h2X-606" value="TourRequest" style="swimlane;fontStyle=1;align=center;verticalAlign=top;childLayout=stackLayout;horizontal=1;startSize=26;horizontalStack=0;resizeParent=1;resizeLast=0;collapsible=1;marginBottom=0;rounded=0;shadow=0;strokeWidth=1;labelBackgroundColor=none;" parent="1" vertex="1">
          <mxGeometry x="2505" y="306.5" width="290" height="424" as="geometry">
            <mxRectangle x="495" y="798" width="280" height="26" as="alternateBounds" />
          </mxGeometry>
        </mxCell>
        <mxCell id="q-JimnCEgB8Lu71b-h2X-607" value="+Id:int" style="text;align=left;verticalAlign=top;spacingLeft=4;spacingRight=4;overflow=hidden;rotatable=0;points=[[0,0.5],[1,0.5]];portConstraint=eastwest;labelBackgroundColor=none;" parent="q-JimnCEgB8Lu71b-h2X-606" vertex="1">
          <mxGeometry y="26" width="290" height="26" as="geometry" />
        </mxCell>
        <mxCell id="q-JimnCEgB8Lu71b-h2X-610" value="+State:TourRequestState" style="text;align=left;verticalAlign=top;spacingLeft=4;spacingRight=4;overflow=hidden;rotatable=0;points=[[0,0.5],[1,0.5]];portConstraint=eastwest;labelBackgroundColor=none;" parent="q-JimnCEgB8Lu71b-h2X-606" vertex="1">
          <mxGeometry y="52" width="290" height="26" as="geometry" />
        </mxCell>
        <mxCell id="q-JimnCEgB8Lu71b-h2X-611" value="+Location:string" style="text;align=left;verticalAlign=top;spacingLeft=4;spacingRight=4;overflow=hidden;rotatable=0;points=[[0,0.5],[1,0.5]];portConstraint=eastwest;labelBackgroundColor=none;" parent="q-JimnCEgB8Lu71b-h2X-606" vertex="1">
          <mxGeometry y="78" width="290" height="26" as="geometry" />
        </mxCell>
        <mxCell id="q-JimnCEgB8Lu71b-h2X-612" value="+Description:string" style="text;align=left;verticalAlign=top;spacingLeft=4;spacingRight=4;overflow=hidden;rotatable=0;points=[[0,0.5],[1,0.5]];portConstraint=eastwest;labelBackgroundColor=none;" parent="q-JimnCEgB8Lu71b-h2X-606" vertex="1">
          <mxGeometry y="104" width="290" height="26" as="geometry" />
        </mxCell>
        <mxCell id="q-JimnCEgB8Lu71b-h2X-613" value="+Language:string" style="text;align=left;verticalAlign=top;spacingLeft=4;spacingRight=4;overflow=hidden;rotatable=0;points=[[0,0.5],[1,0.5]];portConstraint=eastwest;labelBackgroundColor=none;" parent="q-JimnCEgB8Lu71b-h2X-606" vertex="1">
          <mxGeometry y="130" width="290" height="26" as="geometry" />
        </mxCell>
        <mxCell id="q-JimnCEgB8Lu71b-h2X-614" value="+MaxNumberGuests:int" style="text;align=left;verticalAlign=top;spacingLeft=4;spacingRight=4;overflow=hidden;rotatable=0;points=[[0,0.5],[1,0.5]];portConstraint=eastwest;labelBackgroundColor=none;" parent="q-JimnCEgB8Lu71b-h2X-606" vertex="1">
          <mxGeometry y="156" width="290" height="26" as="geometry" />
        </mxCell>
        <mxCell id="q-JimnCEgB8Lu71b-h2X-615" value="+DateRangeStart:DateOnly" style="text;align=left;verticalAlign=top;spacingLeft=4;spacingRight=4;overflow=hidden;rotatable=0;points=[[0,0.5],[1,0.5]];portConstraint=eastwest;labelBackgroundColor=none;" parent="q-JimnCEgB8Lu71b-h2X-606" vertex="1">
          <mxGeometry y="182" width="290" height="26" as="geometry" />
        </mxCell>
        <mxCell id="q-JimnCEgB8Lu71b-h2X-616" value="+DateRangeEnd:DateOnly" style="text;align=left;verticalAlign=top;spacingLeft=4;spacingRight=4;overflow=hidden;rotatable=0;points=[[0,0.5],[1,0.5]];portConstraint=eastwest;labelBackgroundColor=none;" parent="q-JimnCEgB8Lu71b-h2X-606" vertex="1">
          <mxGeometry y="208" width="290" height="26" as="geometry" />
        </mxCell>
        <mxCell id="q-JimnCEgB8Lu71b-h2X-617" value="+CreationDate:DateTime" style="text;align=left;verticalAlign=top;spacingLeft=4;spacingRight=4;overflow=hidden;rotatable=0;points=[[0,0.5],[1,0.5]];portConstraint=eastwest;labelBackgroundColor=none;" parent="q-JimnCEgB8Lu71b-h2X-606" vertex="1">
          <mxGeometry y="234" width="290" height="26" as="geometry" />
        </mxCell>
        <mxCell id="q-JimnCEgB8Lu71b-h2X-618" value="" style="line;html=1;strokeWidth=1;align=left;verticalAlign=middle;spacingTop=-1;spacingLeft=3;spacingRight=3;rotatable=0;labelPosition=right;points=[];portConstraint=eastwest;labelBackgroundColor=none;" parent="q-JimnCEgB8Lu71b-h2X-606" vertex="1">
          <mxGeometry y="260" width="290" height="8" as="geometry" />
        </mxCell>
        <mxCell id="q-JimnCEgB8Lu71b-h2X-619" value="+&amp;lt;&amp;lt;Implement&amp;gt;&amp;gt;&amp;nbsp;ToCSV(): string[]" style="text;strokeColor=none;fillColor=none;align=left;verticalAlign=top;spacingLeft=4;spacingRight=4;overflow=hidden;rotatable=0;points=[[0,0.5],[1,0.5]];portConstraint=eastwest;whiteSpace=wrap;html=1;" parent="q-JimnCEgB8Lu71b-h2X-606" vertex="1">
          <mxGeometry y="268" width="290" height="26" as="geometry" />
        </mxCell>
        <mxCell id="q-JimnCEgB8Lu71b-h2X-620" value="+&amp;lt;&amp;lt;Implement&amp;gt;&amp;gt;&amp;nbsp;FromCSV(string[] values): void" style="text;strokeColor=none;fillColor=none;align=left;verticalAlign=top;spacingLeft=4;spacingRight=4;overflow=hidden;rotatable=0;points=[[0,0.5],[1,0.5]];portConstraint=eastwest;whiteSpace=wrap;html=1;" parent="q-JimnCEgB8Lu71b-h2X-606" vertex="1">
          <mxGeometry y="294" width="290" height="26" as="geometry" />
        </mxCell>
        <mxCell id="q-JimnCEgB8Lu71b-h2X-621" value="&lt;u&gt;&amp;nbsp;+GetRequestState(string state):TourRequestState&amp;nbsp;&lt;/u&gt;" style="text;strokeColor=none;fillColor=none;align=left;verticalAlign=top;spacingLeft=4;spacingRight=4;overflow=hidden;rotatable=0;points=[[0,0.5],[1,0.5]];portConstraint=eastwest;whiteSpace=wrap;html=1;" parent="q-JimnCEgB8Lu71b-h2X-606" vertex="1">
          <mxGeometry y="320" width="290" height="26" as="geometry" />
        </mxCell>
        <mxCell id="q-JimnCEgB8Lu71b-h2X-622" value="&lt;u&gt;+GetRequestState(TourRequestState state):string&amp;nbsp;&lt;/u&gt;" style="text;strokeColor=none;fillColor=none;align=left;verticalAlign=top;spacingLeft=4;spacingRight=4;overflow=hidden;rotatable=0;points=[[0,0.5],[1,0.5]];portConstraint=eastwest;whiteSpace=wrap;html=1;" parent="q-JimnCEgB8Lu71b-h2X-606" vertex="1">
          <mxGeometry y="346" width="290" height="26" as="geometry" />
        </mxCell>
        <mxCell id="q-JimnCEgB8Lu71b-h2X-623" value="ReservationTour" style="swimlane;fontStyle=1;align=center;verticalAlign=top;childLayout=stackLayout;horizontal=1;startSize=26;horizontalStack=0;resizeParent=1;resizeLast=0;collapsible=1;marginBottom=0;rounded=0;shadow=0;strokeWidth=1;labelBackgroundColor=none;" parent="1" vertex="1">
          <mxGeometry x="3555" y="572.5" width="280" height="254" as="geometry">
            <mxRectangle x="1600" y="866" width="280" height="26" as="alternateBounds" />
          </mxGeometry>
        </mxCell>
        <mxCell id="q-JimnCEgB8Lu71b-h2X-624" value="+Id:int" style="text;align=left;verticalAlign=top;spacingLeft=4;spacingRight=4;overflow=hidden;rotatable=0;points=[[0,0.5],[1,0.5]];portConstraint=eastwest;labelBackgroundColor=none;" parent="q-JimnCEgB8Lu71b-h2X-623" vertex="1">
          <mxGeometry y="26" width="280" height="26" as="geometry" />
        </mxCell>
        <mxCell id="q-JimnCEgB8Lu71b-h2X-626" value="+NumberGuests:int" style="text;align=left;verticalAlign=top;spacingLeft=4;spacingRight=4;overflow=hidden;rotatable=0;points=[[0,0.5],[1,0.5]];portConstraint=eastwest;labelBackgroundColor=none;" parent="q-JimnCEgB8Lu71b-h2X-623" vertex="1">
          <mxGeometry y="52" width="280" height="26" as="geometry" />
        </mxCell>
        <mxCell id="q-JimnCEgB8Lu71b-h2X-628" value="+State:Guest2State" style="text;align=left;verticalAlign=top;spacingLeft=4;spacingRight=4;overflow=hidden;rotatable=0;points=[[0,0.5],[1,0.5]];portConstraint=eastwest;labelBackgroundColor=none;" parent="q-JimnCEgB8Lu71b-h2X-623" vertex="1">
          <mxGeometry y="78" width="280" height="26" as="geometry" />
        </mxCell>
        <mxCell id="q-JimnCEgB8Lu71b-h2X-630" value="+UsedVoucher:bool" style="text;align=left;verticalAlign=top;spacingLeft=4;spacingRight=4;overflow=hidden;rotatable=0;points=[[0,0.5],[1,0.5]];portConstraint=eastwest;labelBackgroundColor=none;" parent="q-JimnCEgB8Lu71b-h2X-623" vertex="1">
          <mxGeometry y="104" width="280" height="26" as="geometry" />
        </mxCell>
        <mxCell id="q-JimnCEgB8Lu71b-h2X-631" value="+RatedTour:bool" style="text;align=left;verticalAlign=top;spacingLeft=4;spacingRight=4;overflow=hidden;rotatable=0;points=[[0,0.5],[1,0.5]];portConstraint=eastwest;labelBackgroundColor=none;" parent="q-JimnCEgB8Lu71b-h2X-623" vertex="1">
          <mxGeometry y="130" width="280" height="26" as="geometry" />
        </mxCell>
        <mxCell id="q-JimnCEgB8Lu71b-h2X-632" value="+GuestAgeOnTour:int" style="text;align=left;verticalAlign=top;spacingLeft=4;spacingRight=4;overflow=hidden;rotatable=0;points=[[0,0.5],[1,0.5]];portConstraint=eastwest;labelBackgroundColor=none;" parent="q-JimnCEgB8Lu71b-h2X-623" vertex="1">
          <mxGeometry y="156" width="280" height="26" as="geometry" />
        </mxCell>
        <mxCell id="q-JimnCEgB8Lu71b-h2X-633" value="" style="line;html=1;strokeWidth=1;align=left;verticalAlign=middle;spacingTop=-1;spacingLeft=3;spacingRight=3;rotatable=0;labelPosition=right;points=[];portConstraint=eastwest;labelBackgroundColor=none;" parent="q-JimnCEgB8Lu71b-h2X-623" vertex="1">
          <mxGeometry y="182" width="280" height="8" as="geometry" />
        </mxCell>
        <mxCell id="q-JimnCEgB8Lu71b-h2X-634" value="+&amp;lt;&amp;lt;Implement&amp;gt;&amp;gt;&amp;nbsp;ToCSV(): string[]" style="text;strokeColor=none;fillColor=none;align=left;verticalAlign=top;spacingLeft=4;spacingRight=4;overflow=hidden;rotatable=0;points=[[0,0.5],[1,0.5]];portConstraint=eastwest;whiteSpace=wrap;html=1;" parent="q-JimnCEgB8Lu71b-h2X-623" vertex="1">
          <mxGeometry y="190" width="280" height="26" as="geometry" />
        </mxCell>
        <mxCell id="q-JimnCEgB8Lu71b-h2X-635" value="+&amp;lt;&amp;lt;Implement&amp;gt;&amp;gt;&amp;nbsp;FromCSV(string[] values): void" style="text;strokeColor=none;fillColor=none;align=left;verticalAlign=top;spacingLeft=4;spacingRight=4;overflow=hidden;rotatable=0;points=[[0,0.5],[1,0.5]];portConstraint=eastwest;whiteSpace=wrap;html=1;" parent="q-JimnCEgB8Lu71b-h2X-623" vertex="1">
          <mxGeometry y="216" width="280" height="30" as="geometry" />
        </mxCell>
        <mxCell id="q-JimnCEgB8Lu71b-h2X-636" value="&lt;b&gt;Voucher&lt;/b&gt;" style="swimlane;fontStyle=0;childLayout=stackLayout;horizontal=1;startSize=26;fillColor=none;horizontalStack=0;resizeParent=1;resizeParentMax=0;resizeLast=0;collapsible=1;marginBottom=0;whiteSpace=wrap;html=1;labelBackgroundColor=none;" parent="1" vertex="1">
          <mxGeometry x="3205" y="213" width="280" height="190" as="geometry">
            <mxRectangle x="1250" y="506.5" width="280" height="30" as="alternateBounds" />
          </mxGeometry>
        </mxCell>
        <mxCell id="q-JimnCEgB8Lu71b-h2X-637" value="+Id:int" style="text;strokeColor=none;fillColor=none;align=left;verticalAlign=top;spacingLeft=4;spacingRight=4;overflow=hidden;rotatable=0;points=[[0,0.5],[1,0.5]];portConstraint=eastwest;whiteSpace=wrap;html=1;labelBackgroundColor=none;" parent="q-JimnCEgB8Lu71b-h2X-636" vertex="1">
          <mxGeometry y="26" width="280" height="26" as="geometry" />
        </mxCell>
        <mxCell id="q-JimnCEgB8Lu71b-h2X-638" value="+CreationDate:DateTime" style="text;strokeColor=none;fillColor=none;align=left;verticalAlign=top;spacingLeft=4;spacingRight=4;overflow=hidden;rotatable=0;points=[[0,0.5],[1,0.5]];portConstraint=eastwest;whiteSpace=wrap;html=1;labelBackgroundColor=none;" parent="q-JimnCEgB8Lu71b-h2X-636" vertex="1">
          <mxGeometry y="52" width="280" height="26" as="geometry" />
        </mxCell>
        <mxCell id="q-JimnCEgB8Lu71b-h2X-639" value="+ExpirationDate:DateTime" style="text;strokeColor=none;fillColor=none;align=left;verticalAlign=top;spacingLeft=4;spacingRight=4;overflow=hidden;rotatable=0;points=[[0,0.5],[1,0.5]];portConstraint=eastwest;whiteSpace=wrap;html=1;labelBackgroundColor=none;" parent="q-JimnCEgB8Lu71b-h2X-636" vertex="1">
          <mxGeometry y="78" width="280" height="26" as="geometry" />
        </mxCell>
        <mxCell id="q-JimnCEgB8Lu71b-h2X-640" value="+Used:bool" style="text;strokeColor=none;fillColor=none;align=left;verticalAlign=top;spacingLeft=4;spacingRight=4;overflow=hidden;rotatable=0;points=[[0,0.5],[1,0.5]];portConstraint=eastwest;whiteSpace=wrap;html=1;labelBackgroundColor=none;" parent="q-JimnCEgB8Lu71b-h2X-636" vertex="1">
          <mxGeometry y="104" width="280" height="26" as="geometry" />
        </mxCell>
        <mxCell id="q-JimnCEgB8Lu71b-h2X-641" value="" style="line;strokeWidth=1;fillColor=none;align=left;verticalAlign=middle;spacingTop=-1;spacingLeft=3;spacingRight=3;rotatable=0;labelPosition=right;points=[];portConstraint=eastwest;strokeColor=inherit;" parent="q-JimnCEgB8Lu71b-h2X-636" vertex="1">
          <mxGeometry y="130" width="280" height="8" as="geometry" />
        </mxCell>
        <mxCell id="q-JimnCEgB8Lu71b-h2X-642" value="+&amp;lt;&amp;lt;Implement&amp;gt;&amp;gt;&amp;nbsp;ToCSV(): string[]" style="text;strokeColor=none;fillColor=none;align=left;verticalAlign=top;spacingLeft=4;spacingRight=4;overflow=hidden;rotatable=0;points=[[0,0.5],[1,0.5]];portConstraint=eastwest;whiteSpace=wrap;html=1;labelBackgroundColor=none;" parent="q-JimnCEgB8Lu71b-h2X-636" vertex="1">
          <mxGeometry y="138" width="280" height="26" as="geometry" />
        </mxCell>
        <mxCell id="q-JimnCEgB8Lu71b-h2X-643" value="+&amp;lt;&amp;lt;Implement&amp;gt;&amp;gt;&amp;nbsp;FromCSV(string[] values): void" style="text;strokeColor=none;fillColor=none;align=left;verticalAlign=top;spacingLeft=4;spacingRight=4;overflow=hidden;rotatable=0;points=[[0,0.5],[1,0.5]];portConstraint=eastwest;whiteSpace=wrap;html=1;labelBackgroundColor=none;" parent="q-JimnCEgB8Lu71b-h2X-636" vertex="1">
          <mxGeometry y="164" width="280" height="26" as="geometry" />
        </mxCell>
        <mxCell id="q-JimnCEgB8Lu71b-h2X-644" value="&lt;p style=&quot;margin:0px;margin-top:4px;text-align:center;&quot;&gt;&lt;i&gt;ISerializable&lt;/i&gt;&lt;/p&gt;&lt;p style=&quot;margin:0px;margin-left:4px;&quot;&gt;&lt;br&gt;&lt;/p&gt;&lt;hr size=&quot;1&quot;&gt;&lt;p style=&quot;margin:0px;margin-left:4px;&quot;&gt;+ ToCSV(): string[]&lt;br&gt;+ FromCSV(string[] values): void&lt;/p&gt;" style="verticalAlign=top;align=left;overflow=fill;fontSize=12;fontFamily=Helvetica;html=1;whiteSpace=wrap;" parent="1" vertex="1">
          <mxGeometry x="1970" y="1126.5" width="190" height="90" as="geometry" />
        </mxCell>
        <mxCell id="q-JimnCEgB8Lu71b-h2X-653" value="&amp;lt;&amp;lt;enumeration&amp;gt;&amp;gt;&lt;br&gt;Guest2State" style="swimlane;fontStyle=0;childLayout=stackLayout;horizontal=1;startSize=40;fillColor=none;horizontalStack=0;resizeParent=1;resizeParentMax=0;resizeLast=0;collapsible=1;marginBottom=0;whiteSpace=wrap;html=1;" parent="1" vertex="1" collapsed="1">
          <mxGeometry x="3705" y="380.5" width="140" height="30" as="geometry">
            <mxRectangle x="1750" y="674" width="140" height="170" as="alternateBounds" />
          </mxGeometry>
        </mxCell>
        <mxCell id="q-JimnCEgB8Lu71b-h2X-654" value="InactiveTour" style="text;strokeColor=none;fillColor=none;align=left;verticalAlign=top;spacingLeft=4;spacingRight=4;overflow=hidden;rotatable=0;points=[[0,0.5],[1,0.5]];portConstraint=eastwest;whiteSpace=wrap;html=1;" parent="q-JimnCEgB8Lu71b-h2X-653" vertex="1">
          <mxGeometry y="40" width="140" height="26" as="geometry" />
        </mxCell>
        <mxCell id="q-JimnCEgB8Lu71b-h2X-655" value="ActiveTour" style="text;strokeColor=none;fillColor=none;align=left;verticalAlign=top;spacingLeft=4;spacingRight=4;overflow=hidden;rotatable=0;points=[[0,0.5],[1,0.5]];portConstraint=eastwest;whiteSpace=wrap;html=1;" parent="q-JimnCEgB8Lu71b-h2X-653" vertex="1">
          <mxGeometry y="66" width="140" height="26" as="geometry" />
        </mxCell>
        <mxCell id="q-JimnCEgB8Lu71b-h2X-656" value="Waiting" style="text;strokeColor=none;fillColor=none;align=left;verticalAlign=top;spacingLeft=4;spacingRight=4;overflow=hidden;rotatable=0;points=[[0,0.5],[1,0.5]];portConstraint=eastwest;whiteSpace=wrap;html=1;" parent="q-JimnCEgB8Lu71b-h2X-653" vertex="1">
          <mxGeometry y="92" width="140" height="26" as="geometry" />
        </mxCell>
        <mxCell id="q-JimnCEgB8Lu71b-h2X-657" value="Present" style="text;strokeColor=none;fillColor=none;align=left;verticalAlign=top;spacingLeft=4;spacingRight=4;overflow=hidden;rotatable=0;points=[[0,0.5],[1,0.5]];portConstraint=eastwest;whiteSpace=wrap;html=1;" parent="q-JimnCEgB8Lu71b-h2X-653" vertex="1">
          <mxGeometry y="118" width="140" height="26" as="geometry" />
        </mxCell>
        <mxCell id="q-JimnCEgB8Lu71b-h2X-658" value="NotPresent" style="text;strokeColor=none;fillColor=none;align=left;verticalAlign=top;spacingLeft=4;spacingRight=4;overflow=hidden;rotatable=0;points=[[0,0.5],[1,0.5]];portConstraint=eastwest;whiteSpace=wrap;html=1;" parent="q-JimnCEgB8Lu71b-h2X-653" vertex="1">
          <mxGeometry y="144" width="140" height="26" as="geometry" />
        </mxCell>
        <mxCell id="q-JimnCEgB8Lu71b-h2X-659" value="&amp;lt;&amp;lt;enumeration&amp;gt;&amp;gt;&lt;br&gt;TourRequestState" style="swimlane;fontStyle=0;childLayout=stackLayout;horizontal=1;startSize=40;fillColor=none;horizontalStack=0;resizeParent=1;resizeParentMax=0;resizeLast=0;collapsible=1;marginBottom=0;whiteSpace=wrap;html=1;" parent="1" vertex="1" collapsed="1">
          <mxGeometry x="2580" y="246.5" width="140" height="40" as="geometry">
            <mxRectangle x="565" y="634" width="140" height="118" as="alternateBounds" />
          </mxGeometry>
        </mxCell>
        <mxCell id="q-JimnCEgB8Lu71b-h2X-660" value="Waiting" style="text;strokeColor=none;fillColor=none;align=left;verticalAlign=top;spacingLeft=4;spacingRight=4;overflow=hidden;rotatable=0;points=[[0,0.5],[1,0.5]];portConstraint=eastwest;whiteSpace=wrap;html=1;" parent="q-JimnCEgB8Lu71b-h2X-659" vertex="1">
          <mxGeometry y="40" width="140" height="26" as="geometry" />
        </mxCell>
        <mxCell id="q-JimnCEgB8Lu71b-h2X-661" value="Accepted" style="text;strokeColor=none;fillColor=none;align=left;verticalAlign=top;spacingLeft=4;spacingRight=4;overflow=hidden;rotatable=0;points=[[0,0.5],[1,0.5]];portConstraint=eastwest;whiteSpace=wrap;html=1;" parent="q-JimnCEgB8Lu71b-h2X-659" vertex="1">
          <mxGeometry y="66" width="140" height="26" as="geometry" />
        </mxCell>
        <mxCell id="q-JimnCEgB8Lu71b-h2X-662" value="Invalid" style="text;strokeColor=none;fillColor=none;align=left;verticalAlign=top;spacingLeft=4;spacingRight=4;overflow=hidden;rotatable=0;points=[[0,0.5],[1,0.5]];portConstraint=eastwest;whiteSpace=wrap;html=1;" parent="q-JimnCEgB8Lu71b-h2X-659" vertex="1">
          <mxGeometry y="92" width="140" height="26" as="geometry" />
        </mxCell>
        <mxCell id="q-JimnCEgB8Lu71b-h2X-667" value="Guest2" style="swimlane;fontStyle=1;align=center;verticalAlign=top;childLayout=stackLayout;horizontal=1;startSize=26;horizontalStack=0;resizeParent=1;resizeParentMax=0;resizeLast=0;collapsible=1;marginBottom=0;whiteSpace=wrap;html=1;" parent="1" vertex="1">
          <mxGeometry x="2875" y="504.5" width="280" height="268" as="geometry">
            <mxRectangle x="920" y="798" width="280" height="30" as="alternateBounds" />
          </mxGeometry>
        </mxCell>
        <mxCell id="q-JimnCEgB8Lu71b-h2X-668" value="+ Id: int" style="text;strokeColor=none;fillColor=none;align=left;verticalAlign=top;spacingLeft=4;spacingRight=4;overflow=hidden;rotatable=0;points=[[0,0.5],[1,0.5]];portConstraint=eastwest;whiteSpace=wrap;html=1;" parent="q-JimnCEgB8Lu71b-h2X-667" vertex="1">
          <mxGeometry y="26" width="280" height="26" as="geometry" />
        </mxCell>
        <mxCell id="q-JimnCEgB8Lu71b-h2X-669" value="+ Name: string" style="text;strokeColor=none;fillColor=none;align=left;verticalAlign=top;spacingLeft=4;spacingRight=4;overflow=hidden;rotatable=0;points=[[0,0.5],[1,0.5]];portConstraint=eastwest;whiteSpace=wrap;html=1;" parent="q-JimnCEgB8Lu71b-h2X-667" vertex="1">
          <mxGeometry y="52" width="280" height="26" as="geometry" />
        </mxCell>
        <mxCell id="q-JimnCEgB8Lu71b-h2X-670" value="+ Surname: string" style="text;strokeColor=none;fillColor=none;align=left;verticalAlign=top;spacingLeft=4;spacingRight=4;overflow=hidden;rotatable=0;points=[[0,0.5],[1,0.5]];portConstraint=eastwest;whiteSpace=wrap;html=1;" parent="q-JimnCEgB8Lu71b-h2X-667" vertex="1">
          <mxGeometry y="78" width="280" height="26" as="geometry" />
        </mxCell>
        <mxCell id="q-JimnCEgB8Lu71b-h2X-671" value="+ Adress: string" style="text;strokeColor=none;fillColor=none;align=left;verticalAlign=top;spacingLeft=4;spacingRight=4;overflow=hidden;rotatable=0;points=[[0,0.5],[1,0.5]];portConstraint=eastwest;whiteSpace=wrap;html=1;" parent="q-JimnCEgB8Lu71b-h2X-667" vertex="1">
          <mxGeometry y="104" width="280" height="26" as="geometry" />
        </mxCell>
        <mxCell id="q-JimnCEgB8Lu71b-h2X-672" value="+ Email: string" style="text;strokeColor=none;fillColor=none;align=left;verticalAlign=top;spacingLeft=4;spacingRight=4;overflow=hidden;rotatable=0;points=[[0,0.5],[1,0.5]];portConstraint=eastwest;whiteSpace=wrap;html=1;" parent="q-JimnCEgB8Lu71b-h2X-667" vertex="1">
          <mxGeometry y="130" width="280" height="26" as="geometry" />
        </mxCell>
        <mxCell id="q-JimnCEgB8Lu71b-h2X-675" value="+ BirthDate: DateTime" style="text;strokeColor=none;fillColor=none;align=left;verticalAlign=top;spacingLeft=4;spacingRight=4;overflow=hidden;rotatable=0;points=[[0,0.5],[1,0.5]];portConstraint=eastwest;whiteSpace=wrap;html=1;" parent="q-JimnCEgB8Lu71b-h2X-667" vertex="1">
          <mxGeometry y="156" width="280" height="26" as="geometry" />
        </mxCell>
        <mxCell id="q-JimnCEgB8Lu71b-h2X-676" value="+ PhoneNumber: string" style="text;strokeColor=none;fillColor=none;align=left;verticalAlign=top;spacingLeft=4;spacingRight=4;overflow=hidden;rotatable=0;points=[[0,0.5],[1,0.5]];portConstraint=eastwest;whiteSpace=wrap;html=1;" parent="q-JimnCEgB8Lu71b-h2X-667" vertex="1">
          <mxGeometry y="182" width="280" height="26" as="geometry" />
        </mxCell>
        <mxCell id="q-JimnCEgB8Lu71b-h2X-677" value="" style="line;strokeWidth=1;fillColor=none;align=left;verticalAlign=middle;spacingTop=-1;spacingLeft=3;spacingRight=3;rotatable=0;labelPosition=right;points=[];portConstraint=eastwest;strokeColor=inherit;" parent="q-JimnCEgB8Lu71b-h2X-667" vertex="1">
          <mxGeometry y="208" width="280" height="8" as="geometry" />
        </mxCell>
        <mxCell id="q-JimnCEgB8Lu71b-h2X-678" value="+&amp;lt;&amp;lt;Implement&amp;gt;&amp;gt;&amp;nbsp;ToCSV(): string[]" style="text;strokeColor=none;fillColor=none;align=left;verticalAlign=top;spacingLeft=4;spacingRight=4;overflow=hidden;rotatable=0;points=[[0,0.5],[1,0.5]];portConstraint=eastwest;whiteSpace=wrap;html=1;" parent="q-JimnCEgB8Lu71b-h2X-667" vertex="1">
          <mxGeometry y="216" width="280" height="26" as="geometry" />
        </mxCell>
        <mxCell id="q-JimnCEgB8Lu71b-h2X-679" value="+&amp;lt;&amp;lt;Implement&amp;gt;&amp;gt;&amp;nbsp;FromCSV(string[] values): void" style="text;strokeColor=none;fillColor=none;align=left;verticalAlign=top;spacingLeft=4;spacingRight=4;overflow=hidden;rotatable=0;points=[[0,0.5],[1,0.5]];portConstraint=eastwest;whiteSpace=wrap;html=1;" parent="q-JimnCEgB8Lu71b-h2X-667" vertex="1">
          <mxGeometry y="242" width="280" height="26" as="geometry" />
        </mxCell>
        <mxCell id="q-JimnCEgB8Lu71b-h2X-680" value="Guide" style="swimlane;fontStyle=1;align=center;verticalAlign=top;childLayout=stackLayout;horizontal=1;startSize=26;horizontalStack=0;resizeParent=1;resizeParentMax=0;resizeLast=0;collapsible=1;marginBottom=0;whiteSpace=wrap;html=1;" parent="1" vertex="1">
          <mxGeometry x="2040" y="621.5" width="280" height="242" as="geometry">
            <mxRectangle x="85" y="915" width="280" height="30" as="alternateBounds" />
          </mxGeometry>
        </mxCell>
        <mxCell id="q-JimnCEgB8Lu71b-h2X-681" value="+ Id: int" style="text;strokeColor=none;fillColor=none;align=left;verticalAlign=top;spacingLeft=4;spacingRight=4;overflow=hidden;rotatable=0;points=[[0,0.5],[1,0.5]];portConstraint=eastwest;whiteSpace=wrap;html=1;" parent="q-JimnCEgB8Lu71b-h2X-680" vertex="1">
          <mxGeometry y="26" width="280" height="26" as="geometry" />
        </mxCell>
        <mxCell id="q-JimnCEgB8Lu71b-h2X-682" value="+ Name: string" style="text;strokeColor=none;fillColor=none;align=left;verticalAlign=top;spacingLeft=4;spacingRight=4;overflow=hidden;rotatable=0;points=[[0,0.5],[1,0.5]];portConstraint=eastwest;whiteSpace=wrap;html=1;" parent="q-JimnCEgB8Lu71b-h2X-680" vertex="1">
          <mxGeometry y="52" width="280" height="26" as="geometry" />
        </mxCell>
        <mxCell id="q-JimnCEgB8Lu71b-h2X-683" value="+ Surname: string" style="text;strokeColor=none;fillColor=none;align=left;verticalAlign=top;spacingLeft=4;spacingRight=4;overflow=hidden;rotatable=0;points=[[0,0.5],[1,0.5]];portConstraint=eastwest;whiteSpace=wrap;html=1;" parent="q-JimnCEgB8Lu71b-h2X-680" vertex="1">
          <mxGeometry y="78" width="280" height="26" as="geometry" />
        </mxCell>
        <mxCell id="_YHsfkz__0NLPyngDBoc-27" value="+ FullName :&amp;nbsp; string" style="text;strokeColor=none;fillColor=none;align=left;verticalAlign=top;spacingLeft=4;spacingRight=4;overflow=hidden;rotatable=0;points=[[0,0.5],[1,0.5]];portConstraint=eastwest;whiteSpace=wrap;html=1;" parent="q-JimnCEgB8Lu71b-h2X-680" vertex="1">
          <mxGeometry y="104" width="280" height="26" as="geometry" />
        </mxCell>
        <mxCell id="q-JimnCEgB8Lu71b-h2X-684" value="+ Adress: string" style="text;strokeColor=none;fillColor=none;align=left;verticalAlign=top;spacingLeft=4;spacingRight=4;overflow=hidden;rotatable=0;points=[[0,0.5],[1,0.5]];portConstraint=eastwest;whiteSpace=wrap;html=1;" parent="q-JimnCEgB8Lu71b-h2X-680" vertex="1">
          <mxGeometry y="130" width="280" height="26" as="geometry" />
        </mxCell>
        <mxCell id="q-JimnCEgB8Lu71b-h2X-685" value="+ Email: string" style="text;strokeColor=none;fillColor=none;align=left;verticalAlign=top;spacingLeft=4;spacingRight=4;overflow=hidden;rotatable=0;points=[[0,0.5],[1,0.5]];portConstraint=eastwest;whiteSpace=wrap;html=1;" parent="q-JimnCEgB8Lu71b-h2X-680" vertex="1">
          <mxGeometry y="156" width="280" height="26" as="geometry" />
        </mxCell>
        <mxCell id="q-JimnCEgB8Lu71b-h2X-687" value="" style="line;strokeWidth=1;fillColor=none;align=left;verticalAlign=middle;spacingTop=-1;spacingLeft=3;spacingRight=3;rotatable=0;labelPosition=right;points=[];portConstraint=eastwest;strokeColor=inherit;" parent="q-JimnCEgB8Lu71b-h2X-680" vertex="1">
          <mxGeometry y="182" width="280" height="8" as="geometry" />
        </mxCell>
        <mxCell id="q-JimnCEgB8Lu71b-h2X-688" value="+&amp;lt;&amp;lt;Implement&amp;gt;&amp;gt;&amp;nbsp;ToCSV(): string[]" style="text;strokeColor=none;fillColor=none;align=left;verticalAlign=top;spacingLeft=4;spacingRight=4;overflow=hidden;rotatable=0;points=[[0,0.5],[1,0.5]];portConstraint=eastwest;whiteSpace=wrap;html=1;" parent="q-JimnCEgB8Lu71b-h2X-680" vertex="1">
          <mxGeometry y="190" width="280" height="26" as="geometry" />
        </mxCell>
        <mxCell id="q-JimnCEgB8Lu71b-h2X-689" value="+&amp;lt;&amp;lt;Implement&amp;gt;&amp;gt;&amp;nbsp;FromCSV(string[] values): void" style="text;strokeColor=none;fillColor=none;align=left;verticalAlign=top;spacingLeft=4;spacingRight=4;overflow=hidden;rotatable=0;points=[[0,0.5],[1,0.5]];portConstraint=eastwest;whiteSpace=wrap;html=1;" parent="q-JimnCEgB8Lu71b-h2X-680" vertex="1">
          <mxGeometry y="216" width="280" height="26" as="geometry" />
        </mxCell>
        <mxCell id="q-JimnCEgB8Lu71b-h2X-704" value="" style="endArrow=none;html=1;rounded=0;entryX=0.5;entryY=1;entryDx=0;entryDy=0;exitX=0.5;exitY=0;exitDx=0;exitDy=0;" parent="1" source="q-JimnCEgB8Lu71b-h2X-606" target="q-JimnCEgB8Lu71b-h2X-659" edge="1">
          <mxGeometry relative="1" as="geometry">
            <mxPoint x="2400" y="428.5" as="sourcePoint" />
            <mxPoint x="3290" y="-242" as="targetPoint" />
            <Array as="points" />
          </mxGeometry>
        </mxCell>
        <mxCell id="q-JimnCEgB8Lu71b-h2X-705" value="" style="endArrow=none;html=1;rounded=0;entryX=0.481;entryY=1.078;entryDx=0;entryDy=0;entryPerimeter=0;exitX=0.785;exitY=0.012;exitDx=0;exitDy=0;exitPerimeter=0;" parent="1" source="q-JimnCEgB8Lu71b-h2X-623" target="q-JimnCEgB8Lu71b-h2X-653" edge="1">
          <mxGeometry relative="1" as="geometry">
            <mxPoint x="3755" y="566.5" as="sourcePoint" />
            <mxPoint x="3305" y="-48.879999999999995" as="targetPoint" />
            <Array as="points" />
          </mxGeometry>
        </mxCell>
        <mxCell id="q-JimnCEgB8Lu71b-h2X-724" value="" style="endArrow=open;endFill=1;endSize=12;html=1;rounded=0;exitX=1.003;exitY=0.109;exitDx=0;exitDy=0;entryX=0.01;entryY=0.019;entryDx=0;entryDy=0;exitPerimeter=0;entryPerimeter=0;" parent="1" source="q-JimnCEgB8Lu71b-h2X-681" target="q-JimnCEgB8Lu71b-h2X-586" edge="1">
          <mxGeometry width="160" relative="1" as="geometry">
            <mxPoint x="2335" y="688.2" as="sourcePoint" />
            <mxPoint x="2885" y="976.5" as="targetPoint" />
            <Array as="points">
              <mxPoint x="2365" y="650.5" />
              <mxPoint x="2365" y="1106.5" />
              <mxPoint x="2795" y="1106.5" />
              <mxPoint x="2795" y="1006.5" />
            </Array>
          </mxGeometry>
        </mxCell>
        <mxCell id="_YHsfkz__0NLPyngDBoc-1" value="1..1" style="edgeLabel;html=1;align=center;verticalAlign=middle;resizable=0;points=[];" parent="q-JimnCEgB8Lu71b-h2X-724" vertex="1" connectable="0">
          <mxGeometry x="0.9223" y="-1" relative="1" as="geometry">
            <mxPoint x="4" y="-18" as="offset" />
          </mxGeometry>
        </mxCell>
        <mxCell id="q-JimnCEgB8Lu71b-h2X-726" value="1..1" style="text;html=1;strokeColor=none;fillColor=none;align=center;verticalAlign=middle;whiteSpace=wrap;rounded=0;" parent="1" vertex="1">
          <mxGeometry x="2800.54" y="496" width="40" height="19" as="geometry" />
        </mxCell>
        <mxCell id="q-JimnCEgB8Lu71b-h2X-727" value="" style="endArrow=open;endFill=1;endSize=12;html=1;rounded=0;exitX=0.823;exitY=-0.002;exitDx=0;exitDy=0;exitPerimeter=0;entryX=0.276;entryY=0.004;entryDx=0;entryDy=0;entryPerimeter=0;" parent="1" source="q-JimnCEgB8Lu71b-h2X-667" target="q-JimnCEgB8Lu71b-h2X-623" edge="1">
          <mxGeometry width="160" relative="1" as="geometry">
            <mxPoint x="3135" y="536.5" as="sourcePoint" />
            <mxPoint x="3635" y="566.5" as="targetPoint" />
            <Array as="points">
              <mxPoint x="3105" y="446.5" />
              <mxPoint x="3485" y="446.5" />
              <mxPoint x="3634" y="446.5" />
            </Array>
          </mxGeometry>
        </mxCell>
        <mxCell id="q-JimnCEgB8Lu71b-h2X-730" value="" style="endArrow=open;endFill=1;endSize=12;html=1;rounded=0;exitX=1;exitY=0.5;exitDx=0;exitDy=0;entryX=-0.006;entryY=0.041;entryDx=0;entryDy=0;entryPerimeter=0;" parent="1" source="q-JimnCEgB8Lu71b-h2X-590" target="q-JimnCEgB8Lu71b-h2X-623" edge="1">
          <mxGeometry width="160" relative="1" as="geometry">
            <mxPoint x="2955" y="786.5" as="sourcePoint" />
            <mxPoint x="3555" y="666.5" as="targetPoint" />
            <Array as="points">
              <mxPoint x="3515" y="1096.5" />
              <mxPoint x="3515" y="586.5" />
            </Array>
          </mxGeometry>
        </mxCell>
        <mxCell id="_YHsfkz__0NLPyngDBoc-23" value="0..*" style="edgeLabel;html=1;align=center;verticalAlign=middle;resizable=0;points=[];" parent="q-JimnCEgB8Lu71b-h2X-730" vertex="1" connectable="0">
          <mxGeometry x="-0.955" y="1" relative="1" as="geometry">
            <mxPoint y="-8" as="offset" />
          </mxGeometry>
        </mxCell>
        <mxCell id="q-JimnCEgB8Lu71b-h2X-733" value="" style="endArrow=open;endFill=1;endSize=12;html=1;rounded=0;entryX=0.5;entryY=0;entryDx=0;entryDy=0;exitX=0.008;exitY=0.078;exitDx=0;exitDy=0;exitPerimeter=0;" parent="1" source="q-JimnCEgB8Lu71b-h2X-636" target="q-JimnCEgB8Lu71b-h2X-667" edge="1">
          <mxGeometry width="160" relative="1" as="geometry">
            <mxPoint x="3175" y="236.5" as="sourcePoint" />
            <mxPoint x="3155" y="520" as="targetPoint" />
            <Array as="points">
              <mxPoint x="3015" y="226.5" />
            </Array>
          </mxGeometry>
        </mxCell>
        <mxCell id="q-JimnCEgB8Lu71b-h2X-735" value="1..1" style="text;html=1;strokeColor=none;fillColor=none;align=center;verticalAlign=middle;whiteSpace=wrap;rounded=0;" parent="1" vertex="1">
          <mxGeometry x="3155" y="200" width="40" height="30" as="geometry" />
        </mxCell>
        <mxCell id="q-JimnCEgB8Lu71b-h2X-736" value="" style="endArrow=open;endFill=1;endSize=12;html=1;rounded=0;entryX=0.5;entryY=0;entryDx=0;entryDy=0;exitX=1.005;exitY=0.066;exitDx=0;exitDy=0;exitPerimeter=0;" parent="1" source="q-JimnCEgB8Lu71b-h2X-667" target="q-JimnCEgB8Lu71b-h2X-709" edge="1">
          <mxGeometry width="160" relative="1" as="geometry">
            <mxPoint x="2615" y="536.5" as="sourcePoint" />
            <mxPoint x="2775" y="536.5" as="targetPoint" />
            <Array as="points">
              <mxPoint x="3355" y="519.5" />
            </Array>
          </mxGeometry>
        </mxCell>
        <mxCell id="_YHsfkz__0NLPyngDBoc-25" value="1..1" style="edgeLabel;html=1;align=center;verticalAlign=middle;resizable=0;points=[];" parent="q-JimnCEgB8Lu71b-h2X-736" vertex="1" connectable="0">
          <mxGeometry x="0.8842" y="1" relative="1" as="geometry">
            <mxPoint x="19" y="-4" as="offset" />
          </mxGeometry>
        </mxCell>
        <mxCell id="q-JimnCEgB8Lu71b-h2X-742" value="" style="endArrow=open;endFill=1;endSize=12;html=1;rounded=0;entryX=1;entryY=0.5;entryDx=0;entryDy=0;exitX=0;exitY=0.5;exitDx=0;exitDy=0;" parent="1" source="q-JimnCEgB8Lu71b-h2X-667" target="q-JimnCEgB8Lu71b-h2X-606" edge="1">
          <mxGeometry width="160" relative="1" as="geometry">
            <mxPoint x="2325" y="606.5" as="sourcePoint" />
            <mxPoint x="2485" y="606.5" as="targetPoint" />
            <Array as="points">
              <mxPoint x="2875" y="517.5" />
            </Array>
          </mxGeometry>
        </mxCell>
        <mxCell id="q-JimnCEgB8Lu71b-h2X-743" value="0..*" style="text;html=1;strokeColor=none;fillColor=none;align=center;verticalAlign=middle;whiteSpace=wrap;rounded=0;" parent="1" vertex="1">
          <mxGeometry x="2975" y="466.5" width="40" height="20" as="geometry" />
        </mxCell>
        <mxCell id="q-JimnCEgB8Lu71b-h2X-744" value="1..1" style="text;html=1;strokeColor=none;fillColor=none;align=center;verticalAlign=middle;whiteSpace=wrap;rounded=0;" parent="1" vertex="1">
          <mxGeometry x="2495" y="206.5" width="30" height="17" as="geometry" />
        </mxCell>
        <mxCell id="q-JimnCEgB8Lu71b-h2X-745" value="" style="endArrow=open;endFill=1;endSize=12;html=1;rounded=0;entryX=0;entryY=0.5;entryDx=0;entryDy=0;exitX=0.905;exitY=0.016;exitDx=0;exitDy=0;exitPerimeter=0;" parent="1" source="q-JimnCEgB8Lu71b-h2X-680" target="q-JimnCEgB8Lu71b-h2X-606" edge="1">
          <mxGeometry width="160" relative="1" as="geometry">
            <mxPoint x="2155" y="676.5" as="sourcePoint" />
            <mxPoint x="2145" y="566.5" as="targetPoint" />
            <Array as="points">
              <mxPoint x="2295" y="516.5" />
            </Array>
          </mxGeometry>
        </mxCell>
        <mxCell id="q-JimnCEgB8Lu71b-h2X-746" value="0..1" style="text;html=1;strokeColor=none;fillColor=none;align=center;verticalAlign=middle;whiteSpace=wrap;rounded=0;" parent="1" vertex="1">
          <mxGeometry x="2465" y="486.5" width="30" height="22" as="geometry" />
        </mxCell>
        <mxCell id="q-JimnCEgB8Lu71b-h2X-747" value="0..*" style="text;html=1;strokeColor=none;fillColor=none;align=center;verticalAlign=middle;whiteSpace=wrap;rounded=0;" parent="1" vertex="1">
          <mxGeometry x="2265" y="598.5" width="30" height="18" as="geometry" />
        </mxCell>
        <mxCell id="q-JimnCEgB8Lu71b-h2X-749" value="0..*" style="text;html=1;strokeColor=none;fillColor=none;align=center;verticalAlign=middle;whiteSpace=wrap;rounded=0;" parent="1" vertex="1">
          <mxGeometry x="2320" y="626.5" width="40" height="20" as="geometry" />
        </mxCell>
        <mxCell id="q-JimnCEgB8Lu71b-h2X-754" value="User" style="swimlane;fontStyle=1;align=center;verticalAlign=top;childLayout=stackLayout;horizontal=1;startSize=26;horizontalStack=0;resizeParent=1;resizeParentMax=0;resizeLast=0;collapsible=1;marginBottom=0;whiteSpace=wrap;html=1;" parent="1" vertex="1">
          <mxGeometry x="2175" y="206.5" width="290" height="164" as="geometry">
            <mxRectangle x="250" y="506.5" width="230" height="30" as="alternateBounds" />
          </mxGeometry>
        </mxCell>
        <mxCell id="q-JimnCEgB8Lu71b-h2X-755" value="+ Id: int" style="text;strokeColor=none;fillColor=none;align=left;verticalAlign=top;spacingLeft=4;spacingRight=4;overflow=hidden;rotatable=0;points=[[0,0.5],[1,0.5]];portConstraint=eastwest;whiteSpace=wrap;html=1;" parent="q-JimnCEgB8Lu71b-h2X-754" vertex="1">
          <mxGeometry y="26" width="290" height="26" as="geometry" />
        </mxCell>
        <mxCell id="q-JimnCEgB8Lu71b-h2X-756" value="+ Username:string" style="text;strokeColor=none;fillColor=none;align=left;verticalAlign=top;spacingLeft=4;spacingRight=4;overflow=hidden;rotatable=0;points=[[0,0.5],[1,0.5]];portConstraint=eastwest;whiteSpace=wrap;html=1;" parent="q-JimnCEgB8Lu71b-h2X-754" vertex="1">
          <mxGeometry y="52" width="290" height="26" as="geometry" />
        </mxCell>
        <mxCell id="q-JimnCEgB8Lu71b-h2X-757" value="+ Password:string" style="text;strokeColor=none;fillColor=none;align=left;verticalAlign=top;spacingLeft=4;spacingRight=4;overflow=hidden;rotatable=0;points=[[0,0.5],[1,0.5]];portConstraint=eastwest;whiteSpace=wrap;html=1;" parent="q-JimnCEgB8Lu71b-h2X-754" vertex="1">
          <mxGeometry y="78" width="290" height="26" as="geometry" />
        </mxCell>
        <mxCell id="q-JimnCEgB8Lu71b-h2X-758" value="" style="line;strokeWidth=1;fillColor=none;align=left;verticalAlign=middle;spacingTop=-1;spacingLeft=3;spacingRight=3;rotatable=0;labelPosition=right;points=[];portConstraint=eastwest;strokeColor=inherit;" parent="q-JimnCEgB8Lu71b-h2X-754" vertex="1">
          <mxGeometry y="104" width="290" height="8" as="geometry" />
        </mxCell>
        <mxCell id="q-JimnCEgB8Lu71b-h2X-759" value="+&amp;lt;&amp;lt;Implement&amp;gt;&amp;gt;&amp;nbsp;ToCSV(): string[]" style="text;strokeColor=none;fillColor=none;align=left;verticalAlign=top;spacingLeft=4;spacingRight=4;overflow=hidden;rotatable=0;points=[[0,0.5],[1,0.5]];portConstraint=eastwest;whiteSpace=wrap;html=1;" parent="q-JimnCEgB8Lu71b-h2X-754" vertex="1">
          <mxGeometry y="112" width="290" height="26" as="geometry" />
        </mxCell>
        <mxCell id="q-JimnCEgB8Lu71b-h2X-760" value="+&amp;lt;&amp;lt;Implement&amp;gt;&amp;gt;&amp;nbsp;FromCSV(string[] values): void" style="text;strokeColor=none;fillColor=none;align=left;verticalAlign=top;spacingLeft=4;spacingRight=4;overflow=hidden;rotatable=0;points=[[0,0.5],[1,0.5]];portConstraint=eastwest;whiteSpace=wrap;html=1;" parent="q-JimnCEgB8Lu71b-h2X-754" vertex="1">
          <mxGeometry y="138" width="290" height="26" as="geometry" />
        </mxCell>
        <mxCell id="q-JimnCEgB8Lu71b-h2X-761" value="" style="endArrow=open;endFill=1;endSize=12;html=1;rounded=0;entryX=0.25;entryY=0;entryDx=0;entryDy=0;exitX=1.006;exitY=0.099;exitDx=0;exitDy=0;exitPerimeter=0;" parent="1" source="q-JimnCEgB8Lu71b-h2X-754" target="q-JimnCEgB8Lu71b-h2X-667" edge="1">
          <mxGeometry width="160" relative="1" as="geometry">
            <mxPoint x="2335" y="236.5" as="sourcePoint" />
            <mxPoint x="2495" y="236.5" as="targetPoint" />
            <Array as="points">
              <mxPoint x="2945" y="226.5" />
            </Array>
          </mxGeometry>
        </mxCell>
        <mxCell id="q-JimnCEgB8Lu71b-h2X-762" value="" style="endArrow=open;endFill=1;endSize=12;html=1;rounded=0;exitX=0.158;exitY=1.066;exitDx=0;exitDy=0;exitPerimeter=0;entryX=0.656;entryY=-0.006;entryDx=0;entryDy=0;entryPerimeter=0;" parent="1" source="q-JimnCEgB8Lu71b-h2X-760" target="q-JimnCEgB8Lu71b-h2X-680" edge="1">
          <mxGeometry width="160" relative="1" as="geometry">
            <mxPoint x="2195" y="246.5" as="sourcePoint" />
            <mxPoint x="2068" y="616.5" as="targetPoint" />
            <Array as="points" />
          </mxGeometry>
        </mxCell>
        <mxCell id="_YHsfkz__0NLPyngDBoc-24" value="1..1" style="edgeLabel;html=1;align=center;verticalAlign=middle;resizable=0;points=[];" parent="q-JimnCEgB8Lu71b-h2X-762" vertex="1" connectable="0">
          <mxGeometry x="0.9047" y="-3" relative="1" as="geometry">
            <mxPoint x="-11" y="-8" as="offset" />
          </mxGeometry>
        </mxCell>
        <mxCell id="_YHsfkz__0NLPyngDBoc-195" value="1..1" style="edgeLabel;html=1;align=center;verticalAlign=middle;resizable=0;points=[];" parent="q-JimnCEgB8Lu71b-h2X-762" vertex="1" connectable="0">
          <mxGeometry x="-0.8281" y="-2" relative="1" as="geometry">
            <mxPoint x="21" as="offset" />
          </mxGeometry>
        </mxCell>
        <mxCell id="q-JimnCEgB8Lu71b-h2X-767" value="" style="endArrow=open;endFill=1;endSize=12;html=1;rounded=0;exitX=0.996;exitY=0.355;exitDx=0;exitDy=0;exitPerimeter=0;entryX=0.546;entryY=1.123;entryDx=0;entryDy=0;entryPerimeter=0;" parent="1" source="q-JimnCEgB8Lu71b-h2X-645" target="q-JimnCEgB8Lu71b-h2X-635" edge="1">
          <mxGeometry width="160" relative="1" as="geometry">
            <mxPoint x="3535" y="1526.5" as="sourcePoint" />
            <mxPoint x="3715" y="826.5" as="targetPoint" />
            <Array as="points">
              <mxPoint x="3715" y="1233.5" />
            </Array>
          </mxGeometry>
        </mxCell>
        <mxCell id="_YHsfkz__0NLPyngDBoc-20" value="1..1" style="edgeLabel;html=1;align=center;verticalAlign=middle;resizable=0;points=[];" parent="q-JimnCEgB8Lu71b-h2X-767" vertex="1" connectable="0">
          <mxGeometry x="0.903" y="-1" relative="1" as="geometry">
            <mxPoint x="19" y="-6" as="offset" />
          </mxGeometry>
        </mxCell>
        <mxCell id="_YHsfkz__0NLPyngDBoc-22" value="0..*" style="edgeLabel;html=1;align=center;verticalAlign=middle;resizable=0;points=[];" parent="q-JimnCEgB8Lu71b-h2X-767" vertex="1" connectable="0">
          <mxGeometry x="-0.9206" y="-1" relative="1" as="geometry">
            <mxPoint x="1" y="-16" as="offset" />
          </mxGeometry>
        </mxCell>
        <mxCell id="q-JimnCEgB8Lu71b-h2X-645" value="KeyPoint" style="swimlane;fontStyle=1;align=center;verticalAlign=top;childLayout=stackLayout;horizontal=1;startSize=26;horizontalStack=0;resizeParent=1;resizeParentMax=0;resizeLast=0;collapsible=1;marginBottom=0;whiteSpace=wrap;html=1;" parent="1" vertex="1">
          <mxGeometry x="3255" y="1166.5" width="280" height="190" as="geometry">
            <mxRectangle x="1436.42" y="1500" width="280" height="30" as="alternateBounds" />
          </mxGeometry>
        </mxCell>
        <mxCell id="q-JimnCEgB8Lu71b-h2X-646" value="+ Id: int" style="text;strokeColor=none;fillColor=none;align=left;verticalAlign=top;spacingLeft=4;spacingRight=4;overflow=hidden;rotatable=0;points=[[0,0.5],[1,0.5]];portConstraint=eastwest;whiteSpace=wrap;html=1;" parent="q-JimnCEgB8Lu71b-h2X-645" vertex="1">
          <mxGeometry y="26" width="280" height="26" as="geometry" />
        </mxCell>
        <mxCell id="q-JimnCEgB8Lu71b-h2X-647" value="+ Name: string" style="text;strokeColor=none;fillColor=none;align=left;verticalAlign=top;spacingLeft=4;spacingRight=4;overflow=hidden;rotatable=0;points=[[0,0.5],[1,0.5]];portConstraint=eastwest;whiteSpace=wrap;html=1;" parent="q-JimnCEgB8Lu71b-h2X-645" vertex="1">
          <mxGeometry y="52" width="280" height="26" as="geometry" />
        </mxCell>
        <mxCell id="q-JimnCEgB8Lu71b-h2X-648" value="+ Finished: bool" style="text;strokeColor=none;fillColor=none;align=left;verticalAlign=top;spacingLeft=4;spacingRight=4;overflow=hidden;rotatable=0;points=[[0,0.5],[1,0.5]];portConstraint=eastwest;whiteSpace=wrap;html=1;" parent="q-JimnCEgB8Lu71b-h2X-645" vertex="1">
          <mxGeometry y="78" width="280" height="26" as="geometry" />
        </mxCell>
        <mxCell id="q-JimnCEgB8Lu71b-h2X-649" value="+ Type: KeyPointType" style="text;strokeColor=none;fillColor=none;align=left;verticalAlign=top;spacingLeft=4;spacingRight=4;overflow=hidden;rotatable=0;points=[[0,0.5],[1,0.5]];portConstraint=eastwest;whiteSpace=wrap;html=1;" parent="q-JimnCEgB8Lu71b-h2X-645" vertex="1">
          <mxGeometry y="104" width="280" height="26" as="geometry" />
        </mxCell>
        <mxCell id="q-JimnCEgB8Lu71b-h2X-650" value="" style="line;strokeWidth=1;fillColor=none;align=left;verticalAlign=middle;spacingTop=-1;spacingLeft=3;spacingRight=3;rotatable=0;labelPosition=right;points=[];portConstraint=eastwest;strokeColor=inherit;" parent="q-JimnCEgB8Lu71b-h2X-645" vertex="1">
          <mxGeometry y="130" width="280" height="8" as="geometry" />
        </mxCell>
        <mxCell id="q-JimnCEgB8Lu71b-h2X-651" value="+&amp;lt;&amp;lt;Implement&amp;gt;&amp;gt;&amp;nbsp;ToCSV(): string[]" style="text;strokeColor=none;fillColor=none;align=left;verticalAlign=top;spacingLeft=4;spacingRight=4;overflow=hidden;rotatable=0;points=[[0,0.5],[1,0.5]];portConstraint=eastwest;whiteSpace=wrap;html=1;" parent="q-JimnCEgB8Lu71b-h2X-645" vertex="1">
          <mxGeometry y="138" width="280" height="26" as="geometry" />
        </mxCell>
        <mxCell id="q-JimnCEgB8Lu71b-h2X-652" value="+&amp;lt;&amp;lt;Implement&amp;gt;&amp;gt;&amp;nbsp;FromCSV(string[] values): void" style="text;strokeColor=none;fillColor=none;align=left;verticalAlign=top;spacingLeft=4;spacingRight=4;overflow=hidden;rotatable=0;points=[[0,0.5],[1,0.5]];portConstraint=eastwest;whiteSpace=wrap;html=1;" parent="q-JimnCEgB8Lu71b-h2X-645" vertex="1">
          <mxGeometry y="164" width="280" height="26" as="geometry" />
        </mxCell>
        <mxCell id="q-JimnCEgB8Lu71b-h2X-763" value="1..1" style="text;html=1;strokeColor=none;fillColor=none;align=center;verticalAlign=middle;whiteSpace=wrap;rounded=0;" parent="1" vertex="1">
          <mxGeometry x="2905" y="461.5" width="40" height="30" as="geometry" />
        </mxCell>
        <mxCell id="q-JimnCEgB8Lu71b-h2X-586" value="Tour" style="swimlane;fontStyle=1;align=center;verticalAlign=top;childLayout=stackLayout;horizontal=1;startSize=30;horizontalStack=0;resizeParent=1;resizeLast=0;collapsible=1;marginBottom=0;rounded=0;shadow=0;strokeWidth=1;labelBackgroundColor=none;" parent="1" vertex="1">
          <mxGeometry x="2824.38" y="996.5" width="280" height="460" as="geometry">
            <mxRectangle x="869.38" y="1290" width="280" height="26" as="alternateBounds" />
          </mxGeometry>
        </mxCell>
        <mxCell id="q-JimnCEgB8Lu71b-h2X-587" value="+Id:int" style="text;align=left;verticalAlign=top;spacingLeft=4;spacingRight=4;overflow=hidden;rotatable=0;points=[[0,0.5],[1,0.5]];portConstraint=eastwest;labelBackgroundColor=none;" parent="q-JimnCEgB8Lu71b-h2X-586" vertex="1">
          <mxGeometry y="30" width="280" height="26" as="geometry" />
        </mxCell>
        <mxCell id="q-JimnCEgB8Lu71b-h2X-589" value="+Name : string" style="text;align=left;verticalAlign=top;spacingLeft=4;spacingRight=4;overflow=hidden;rotatable=0;points=[[0,0.5],[1,0.5]];portConstraint=eastwest;rounded=0;shadow=0;html=0;labelBackgroundColor=none;" parent="q-JimnCEgB8Lu71b-h2X-586" vertex="1">
          <mxGeometry y="56" width="280" height="28" as="geometry" />
        </mxCell>
        <mxCell id="q-JimnCEgB8Lu71b-h2X-590" value="+Location:string" style="text;align=left;verticalAlign=top;spacingLeft=4;spacingRight=4;overflow=hidden;rotatable=0;points=[[0,0.5],[1,0.5]];portConstraint=eastwest;rounded=0;shadow=0;html=0;labelBackgroundColor=none;" parent="q-JimnCEgB8Lu71b-h2X-586" vertex="1">
          <mxGeometry y="84" width="280" height="28" as="geometry" />
        </mxCell>
        <mxCell id="q-JimnCEgB8Lu71b-h2X-591" value="+Description:string" style="text;align=left;verticalAlign=top;spacingLeft=4;spacingRight=4;overflow=hidden;rotatable=0;points=[[0,0.5],[1,0.5]];portConstraint=eastwest;rounded=0;shadow=0;html=0;labelBackgroundColor=none;" parent="q-JimnCEgB8Lu71b-h2X-586" vertex="1">
          <mxGeometry y="112" width="280" height="28" as="geometry" />
        </mxCell>
        <mxCell id="q-JimnCEgB8Lu71b-h2X-592" value="+Language:string" style="text;align=left;verticalAlign=top;spacingLeft=4;spacingRight=4;overflow=hidden;rotatable=0;points=[[0,0.5],[1,0.5]];portConstraint=eastwest;rounded=0;shadow=0;html=0;labelBackgroundColor=none;" parent="q-JimnCEgB8Lu71b-h2X-586" vertex="1">
          <mxGeometry y="140" width="280" height="28" as="geometry" />
        </mxCell>
        <mxCell id="q-JimnCEgB8Lu71b-h2X-593" value="+MaxNumberGuests:int" style="text;align=left;verticalAlign=top;spacingLeft=4;spacingRight=4;overflow=hidden;rotatable=0;points=[[0,0.5],[1,0.5]];portConstraint=eastwest;rounded=0;shadow=0;html=0;labelBackgroundColor=none;" parent="q-JimnCEgB8Lu71b-h2X-586" vertex="1">
          <mxGeometry y="168" width="280" height="28" as="geometry" />
        </mxCell>
        <mxCell id="q-JimnCEgB8Lu71b-h2X-595" value="+StartOfTheTour:DateTime" style="text;align=left;verticalAlign=top;spacingLeft=4;spacingRight=4;overflow=hidden;rotatable=0;points=[[0,0.5],[1,0.5]];portConstraint=eastwest;rounded=0;shadow=0;html=0;labelBackgroundColor=none;" parent="q-JimnCEgB8Lu71b-h2X-586" vertex="1">
          <mxGeometry y="196" width="280" height="28" as="geometry" />
        </mxCell>
        <mxCell id="q-JimnCEgB8Lu71b-h2X-596" value="+Duration:double" style="text;align=left;verticalAlign=top;spacingLeft=4;spacingRight=4;overflow=hidden;rotatable=0;points=[[0,0.5],[1,0.5]];portConstraint=eastwest;rounded=0;shadow=0;html=0;labelBackgroundColor=none;" parent="q-JimnCEgB8Lu71b-h2X-586" vertex="1">
          <mxGeometry y="224" width="280" height="28" as="geometry" />
        </mxCell>
        <mxCell id="q-JimnCEgB8Lu71b-h2X-597" value="+Images:List&lt;string&gt;" style="text;align=left;verticalAlign=top;spacingLeft=4;spacingRight=4;overflow=hidden;rotatable=0;points=[[0,0.5],[1,0.5]];portConstraint=eastwest;rounded=0;shadow=0;html=0;labelBackgroundColor=none;" parent="q-JimnCEgB8Lu71b-h2X-586" vertex="1">
          <mxGeometry y="252" width="280" height="28" as="geometry" />
        </mxCell>
        <mxCell id="q-JimnCEgB8Lu71b-h2X-598" value="+AvailableSeats:int" style="text;align=left;verticalAlign=top;spacingLeft=4;spacingRight=4;overflow=hidden;rotatable=0;points=[[0,0.5],[1,0.5]];portConstraint=eastwest;rounded=0;shadow=0;html=0;labelBackgroundColor=none;" parent="q-JimnCEgB8Lu71b-h2X-586" vertex="1">
          <mxGeometry y="280" width="280" height="26" as="geometry" />
        </mxCell>
        <mxCell id="q-JimnCEgB8Lu71b-h2X-599" value="+State:TourState" style="text;align=left;verticalAlign=top;spacingLeft=4;spacingRight=4;overflow=hidden;rotatable=0;points=[[0,0.5],[1,0.5]];portConstraint=eastwest;rounded=0;shadow=0;html=0;labelBackgroundColor=none;" parent="q-JimnCEgB8Lu71b-h2X-586" vertex="1">
          <mxGeometry y="306" width="280" height="28" as="geometry" />
        </mxCell>
        <mxCell id="q-JimnCEgB8Lu71b-h2X-601" value="" style="line;html=1;strokeWidth=1;align=left;verticalAlign=middle;spacingTop=-1;spacingLeft=3;spacingRight=3;rotatable=0;labelPosition=right;points=[];portConstraint=eastwest;labelBackgroundColor=none;" parent="q-JimnCEgB8Lu71b-h2X-586" vertex="1">
          <mxGeometry y="334" width="280" height="8" as="geometry" />
        </mxCell>
        <mxCell id="q-JimnCEgB8Lu71b-h2X-602" value="+&lt;&lt;Implement&gt;&gt; ToCSV(): string[]" style="text;align=left;verticalAlign=top;spacingLeft=4;spacingRight=4;overflow=hidden;rotatable=0;points=[[0,0.5],[1,0.5]];portConstraint=eastwest;labelBackgroundColor=none;" parent="q-JimnCEgB8Lu71b-h2X-586" vertex="1">
          <mxGeometry y="342" width="280" height="26" as="geometry" />
        </mxCell>
        <mxCell id="q-JimnCEgB8Lu71b-h2X-603" value="+&lt;&lt;Implement&gt;&gt; FromCSV(string[] values): void" style="text;align=left;verticalAlign=top;spacingLeft=4;spacingRight=4;overflow=hidden;rotatable=0;points=[[0,0.5],[1,0.5]];portConstraint=eastwest;labelBackgroundColor=none;" parent="q-JimnCEgB8Lu71b-h2X-586" vertex="1">
          <mxGeometry y="368" width="280" height="30" as="geometry" />
        </mxCell>
        <mxCell id="q-JimnCEgB8Lu71b-h2X-604" value=" +GetState(string state):TourState " style="text;align=left;verticalAlign=top;spacingLeft=4;spacingRight=4;overflow=hidden;rotatable=0;points=[[0,0.5],[1,0.5]];portConstraint=eastwest;labelBackgroundColor=none;fontStyle=4" parent="q-JimnCEgB8Lu71b-h2X-586" vertex="1">
          <mxGeometry y="398" width="280" height="30" as="geometry" />
        </mxCell>
        <mxCell id="q-JimnCEgB8Lu71b-h2X-605" value="+GetState(TourState state):string " style="text;align=left;verticalAlign=top;spacingLeft=4;spacingRight=4;overflow=hidden;rotatable=0;points=[[0,0.5],[1,0.5]];portConstraint=eastwest;labelBackgroundColor=none;fontStyle=4" parent="q-JimnCEgB8Lu71b-h2X-586" vertex="1">
          <mxGeometry y="428" width="280" height="30" as="geometry" />
        </mxCell>
        <mxCell id="q-JimnCEgB8Lu71b-h2X-739" value="" style="endArrow=open;endFill=1;endSize=12;html=1;rounded=0;exitX=0.881;exitY=-0.006;exitDx=0;exitDy=0;exitPerimeter=0;entryX=-0.003;entryY=0.897;entryDx=0;entryDy=0;entryPerimeter=0;" parent="1" source="q-JimnCEgB8Lu71b-h2X-586" target="q-JimnCEgB8Lu71b-h2X-717" edge="1">
          <mxGeometry width="160" relative="1" as="geometry">
            <mxPoint x="2615" y="1126.5" as="sourcePoint" />
            <mxPoint x="2775" y="1126.5" as="targetPoint" />
            <Array as="points">
              <mxPoint x="3073" y="909.5" />
            </Array>
          </mxGeometry>
        </mxCell>
        <mxCell id="_YHsfkz__0NLPyngDBoc-26" value="1..1" style="edgeLabel;html=1;align=center;verticalAlign=middle;resizable=0;points=[];" parent="q-JimnCEgB8Lu71b-h2X-739" vertex="1" connectable="0">
          <mxGeometry x="0.7611" y="-1" relative="1" as="geometry">
            <mxPoint y="-14" as="offset" />
          </mxGeometry>
        </mxCell>
        <mxCell id="q-JimnCEgB8Lu71b-h2X-706" value="" style="endArrow=none;html=1;rounded=0;entryX=0.5;entryY=1;entryDx=0;entryDy=0;exitX=0.493;exitY=-0.007;exitDx=0;exitDy=0;exitPerimeter=0;" parent="1" source="q-JimnCEgB8Lu71b-h2X-586" target="q-JimnCEgB8Lu71b-h2X-699" edge="1">
          <mxGeometry relative="1" as="geometry">
            <mxPoint x="2945" y="496.5" as="sourcePoint" />
            <mxPoint x="3135" y="476.5" as="targetPoint" />
          </mxGeometry>
        </mxCell>
        <mxCell id="q-JimnCEgB8Lu71b-h2X-708" value="" style="endArrow=diamondThin;endFill=1;endSize=24;html=1;rounded=0;exitX=0;exitY=0.789;exitDx=0;exitDy=0;entryX=0.997;entryY=0.713;entryDx=0;entryDy=0;entryPerimeter=0;exitPerimeter=0;" parent="1" source="q-JimnCEgB8Lu71b-h2X-646" target="q-JimnCEgB8Lu71b-h2X-595" edge="1">
          <mxGeometry width="160" relative="1" as="geometry">
            <mxPoint x="3046" y="1736.5" as="sourcePoint" />
            <mxPoint x="3175" y="1466.5" as="targetPoint" />
            <Array as="points" />
          </mxGeometry>
        </mxCell>
        <mxCell id="_YHsfkz__0NLPyngDBoc-2" value="1..1" style="edgeLabel;html=1;align=center;verticalAlign=middle;resizable=0;points=[];" parent="q-JimnCEgB8Lu71b-h2X-708" vertex="1" connectable="0">
          <mxGeometry x="-0.8212" relative="1" as="geometry">
            <mxPoint y="-8" as="offset" />
          </mxGeometry>
        </mxCell>
        <mxCell id="_YHsfkz__0NLPyngDBoc-3" value="1..*" style="edgeLabel;html=1;align=center;verticalAlign=middle;resizable=0;points=[];" parent="q-JimnCEgB8Lu71b-h2X-708" vertex="1" connectable="0">
          <mxGeometry x="0.7256" y="-1" relative="1" as="geometry">
            <mxPoint x="20" y="-9" as="offset" />
          </mxGeometry>
        </mxCell>
        <mxCell id="q-JimnCEgB8Lu71b-h2X-709" value="TourAndGuideRating" style="swimlane;fontStyle=1;align=center;verticalAlign=top;childLayout=stackLayout;horizontal=1;startSize=30;horizontalStack=0;resizeParent=1;resizeLast=0;collapsible=1;marginBottom=0;rounded=0;shadow=0;strokeWidth=1;labelBackgroundColor=none;" parent="1" vertex="1">
          <mxGeometry x="3215.003846153846" y="716.5" width="280" height="350" as="geometry">
            <mxRectangle x="1260.0038461538463" y="1190" width="275.69230769230774" height="26" as="alternateBounds" />
          </mxGeometry>
        </mxCell>
        <mxCell id="q-JimnCEgB8Lu71b-h2X-710" value="+Id:int" style="text;align=left;verticalAlign=top;spacingLeft=4;spacingRight=4;overflow=hidden;rotatable=0;points=[[0,0.5],[1,0.5]];portConstraint=eastwest;labelBackgroundColor=none;" parent="q-JimnCEgB8Lu71b-h2X-709" vertex="1">
          <mxGeometry y="30" width="280" height="26" as="geometry" />
        </mxCell>
        <mxCell id="q-JimnCEgB8Lu71b-h2X-713" value="+KnowledgeGuide:int" style="text;align=left;verticalAlign=top;spacingLeft=4;spacingRight=4;overflow=hidden;rotatable=0;points=[[0,0.5],[1,0.5]];portConstraint=eastwest;rounded=0;shadow=0;html=0;labelBackgroundColor=none;" parent="q-JimnCEgB8Lu71b-h2X-709" vertex="1">
          <mxGeometry y="56" width="280" height="28" as="geometry" />
        </mxCell>
        <mxCell id="q-JimnCEgB8Lu71b-h2X-714" value="+LanguageGuide:int" style="text;align=left;verticalAlign=top;spacingLeft=4;spacingRight=4;overflow=hidden;rotatable=0;points=[[0,0.5],[1,0.5]];portConstraint=eastwest;rounded=0;shadow=0;html=0;labelBackgroundColor=none;" parent="q-JimnCEgB8Lu71b-h2X-709" vertex="1">
          <mxGeometry y="84" width="280" height="28" as="geometry" />
        </mxCell>
        <mxCell id="q-JimnCEgB8Lu71b-h2X-715" value="+InterestingTour:int" style="text;align=left;verticalAlign=top;spacingLeft=4;spacingRight=4;overflow=hidden;rotatable=0;points=[[0,0.5],[1,0.5]];portConstraint=eastwest;rounded=0;shadow=0;html=0;labelBackgroundColor=none;" parent="q-JimnCEgB8Lu71b-h2X-709" vertex="1">
          <mxGeometry y="112" width="280" height="28" as="geometry" />
        </mxCell>
        <mxCell id="q-JimnCEgB8Lu71b-h2X-716" value="+AddedComment:string" style="text;align=left;verticalAlign=top;spacingLeft=4;spacingRight=4;overflow=hidden;rotatable=0;points=[[0,0.5],[1,0.5]];portConstraint=eastwest;rounded=0;shadow=0;html=0;labelBackgroundColor=none;" parent="q-JimnCEgB8Lu71b-h2X-709" vertex="1">
          <mxGeometry y="140" width="280" height="28" as="geometry" />
        </mxCell>
        <mxCell id="q-JimnCEgB8Lu71b-h2X-717" value="+Images:List&lt;string&gt;" style="text;align=left;verticalAlign=top;spacingLeft=4;spacingRight=4;overflow=hidden;rotatable=0;points=[[0,0.5],[1,0.5]];portConstraint=eastwest;rounded=0;shadow=0;html=0;labelBackgroundColor=none;" parent="q-JimnCEgB8Lu71b-h2X-709" vertex="1">
          <mxGeometry y="168" width="280" height="28" as="geometry" />
        </mxCell>
        <mxCell id="q-JimnCEgB8Lu71b-h2X-718" value="+IsValid:bool" style="text;align=left;verticalAlign=top;spacingLeft=4;spacingRight=4;overflow=hidden;rotatable=0;points=[[0,0.5],[1,0.5]];portConstraint=eastwest;rounded=0;shadow=0;html=0;labelBackgroundColor=none;" parent="q-JimnCEgB8Lu71b-h2X-709" vertex="1">
          <mxGeometry y="196" width="280" height="28" as="geometry" />
        </mxCell>
        <mxCell id="q-JimnCEgB8Lu71b-h2X-719" value="" style="line;html=1;strokeWidth=1;align=left;verticalAlign=middle;spacingTop=-1;spacingLeft=3;spacingRight=3;rotatable=0;labelPosition=right;points=[];portConstraint=eastwest;labelBackgroundColor=none;" parent="q-JimnCEgB8Lu71b-h2X-709" vertex="1">
          <mxGeometry y="224" width="280" height="8" as="geometry" />
        </mxCell>
        <mxCell id="q-JimnCEgB8Lu71b-h2X-720" value="+&lt;&lt;Implement&gt;&gt; ToCSV(): string[]" style="text;align=left;verticalAlign=top;spacingLeft=4;spacingRight=4;overflow=hidden;rotatable=0;points=[[0,0.5],[1,0.5]];portConstraint=eastwest;labelBackgroundColor=none;" parent="q-JimnCEgB8Lu71b-h2X-709" vertex="1">
          <mxGeometry y="232" width="280" height="26" as="geometry" />
        </mxCell>
        <mxCell id="q-JimnCEgB8Lu71b-h2X-721" value="+&lt;&lt;Implement&gt;&gt; FromCSV(string[] values): void" style="text;align=left;verticalAlign=top;spacingLeft=4;spacingRight=4;overflow=hidden;rotatable=0;points=[[0,0.5],[1,0.5]];portConstraint=eastwest;labelBackgroundColor=none;" parent="q-JimnCEgB8Lu71b-h2X-709" vertex="1">
          <mxGeometry y="258" width="280" height="30" as="geometry" />
        </mxCell>
        <mxCell id="q-JimnCEgB8Lu71b-h2X-731" value="0..*" style="text;html=1;strokeColor=none;fillColor=none;align=center;verticalAlign=middle;whiteSpace=wrap;rounded=0;" parent="1" vertex="1">
          <mxGeometry x="3065" y="468.5" width="39.38461538461538" height="18" as="geometry" />
        </mxCell>
        <mxCell id="q-JimnCEgB8Lu71b-h2X-741" value="0..*" style="text;html=1;strokeColor=none;fillColor=none;align=center;verticalAlign=middle;whiteSpace=wrap;rounded=0;" parent="1" vertex="1">
          <mxGeometry x="2840.536923076923" y="496" width="34.46153846153847" height="24.5" as="geometry" />
        </mxCell>
        <mxCell id="q-JimnCEgB8Lu71b-h2X-663" value="&amp;lt;&amp;lt;enumeration&amp;gt;&amp;gt;&lt;br&gt;KeyPointType" style="swimlane;fontStyle=0;childLayout=stackLayout;horizontal=1;startSize=50;fillColor=none;horizontalStack=0;resizeParent=1;resizeParentMax=0;resizeLast=0;collapsible=1;marginBottom=0;whiteSpace=wrap;html=1;" parent="1" vertex="1" collapsed="1">
          <mxGeometry x="3544.999230769231" y="1076.5" width="137.84615384615387" height="50" as="geometry">
            <mxRectangle x="1349.9992307692307" y="1670" width="140" height="128" as="alternateBounds" />
          </mxGeometry>
        </mxCell>
        <mxCell id="q-JimnCEgB8Lu71b-h2X-664" value="First" style="text;strokeColor=none;fillColor=none;align=left;verticalAlign=top;spacingLeft=4;spacingRight=4;overflow=hidden;rotatable=0;points=[[0,0.5],[1,0.5]];portConstraint=eastwest;whiteSpace=wrap;html=1;" parent="q-JimnCEgB8Lu71b-h2X-663" vertex="1">
          <mxGeometry y="50" width="140" height="26" as="geometry" />
        </mxCell>
        <mxCell id="q-JimnCEgB8Lu71b-h2X-665" value="Intermediate" style="text;strokeColor=none;fillColor=none;align=left;verticalAlign=top;spacingLeft=4;spacingRight=4;overflow=hidden;rotatable=0;points=[[0,0.5],[1,0.5]];portConstraint=eastwest;whiteSpace=wrap;html=1;" parent="q-JimnCEgB8Lu71b-h2X-663" vertex="1">
          <mxGeometry y="76" width="140" height="26" as="geometry" />
        </mxCell>
        <mxCell id="q-JimnCEgB8Lu71b-h2X-666" value="Last" style="text;strokeColor=none;fillColor=none;align=left;verticalAlign=top;spacingLeft=4;spacingRight=4;overflow=hidden;rotatable=0;points=[[0,0.5],[1,0.5]];portConstraint=eastwest;whiteSpace=wrap;html=1;" parent="q-JimnCEgB8Lu71b-h2X-663" vertex="1">
          <mxGeometry y="102" width="140" height="26" as="geometry" />
        </mxCell>
        <mxCell id="q-JimnCEgB8Lu71b-h2X-707" value="" style="endArrow=none;html=1;rounded=0;exitX=1.008;exitY=0.05;exitDx=0;exitDy=0;entryX=0.516;entryY=1;entryDx=0;entryDy=0;entryPerimeter=0;exitPerimeter=0;" parent="1" source="q-JimnCEgB8Lu71b-h2X-645" target="q-JimnCEgB8Lu71b-h2X-663" edge="1">
          <mxGeometry relative="1" as="geometry">
            <mxPoint x="3173.464615384615" y="1311.5" as="sourcePoint" />
            <mxPoint x="3356.08" y="1196.5" as="targetPoint" />
            <Array as="points" />
          </mxGeometry>
        </mxCell>
        <mxCell id="q-JimnCEgB8Lu71b-h2X-699" value="&amp;lt;&amp;lt;enumeration&amp;gt;&amp;gt;&lt;br&gt;TourState" style="swimlane;fontStyle=0;childLayout=stackLayout;horizontal=1;startSize=40;fillColor=none;horizontalStack=0;resizeParent=1;resizeParentMax=0;resizeLast=0;collapsible=1;marginBottom=0;whiteSpace=wrap;html=1;" parent="1" vertex="1" collapsed="1">
          <mxGeometry x="2895.456923076923" y="896.5" width="137.84615384615387" height="40" as="geometry">
            <mxRectangle x="940.4569230769232" y="1190" width="140" height="144" as="alternateBounds" />
          </mxGeometry>
        </mxCell>
        <mxCell id="q-JimnCEgB8Lu71b-h2X-700" value="Inactive" style="text;strokeColor=none;fillColor=none;align=left;verticalAlign=top;spacingLeft=4;spacingRight=4;overflow=hidden;rotatable=0;points=[[0,0.5],[1,0.5]];portConstraint=eastwest;whiteSpace=wrap;html=1;" parent="q-JimnCEgB8Lu71b-h2X-699" vertex="1">
          <mxGeometry y="40" width="140" height="26" as="geometry" />
        </mxCell>
        <mxCell id="q-JimnCEgB8Lu71b-h2X-701" value="Active" style="text;strokeColor=none;fillColor=none;align=left;verticalAlign=top;spacingLeft=4;spacingRight=4;overflow=hidden;rotatable=0;points=[[0,0.5],[1,0.5]];portConstraint=eastwest;whiteSpace=wrap;html=1;" parent="q-JimnCEgB8Lu71b-h2X-699" vertex="1">
          <mxGeometry y="66" width="140" height="26" as="geometry" />
        </mxCell>
        <mxCell id="q-JimnCEgB8Lu71b-h2X-702" value="Finished" style="text;strokeColor=none;fillColor=none;align=left;verticalAlign=top;spacingLeft=4;spacingRight=4;overflow=hidden;rotatable=0;points=[[0,0.5],[1,0.5]];portConstraint=eastwest;whiteSpace=wrap;html=1;" parent="q-JimnCEgB8Lu71b-h2X-699" vertex="1">
          <mxGeometry y="92" width="140" height="26" as="geometry" />
        </mxCell>
        <mxCell id="q-JimnCEgB8Lu71b-h2X-703" value="Cancelled" style="text;strokeColor=none;fillColor=none;align=left;verticalAlign=top;spacingLeft=4;spacingRight=4;overflow=hidden;rotatable=0;points=[[0,0.5],[1,0.5]];portConstraint=eastwest;whiteSpace=wrap;html=1;" parent="q-JimnCEgB8Lu71b-h2X-699" vertex="1">
          <mxGeometry y="118" width="140" height="26" as="geometry" />
        </mxCell>
        <mxCell id="q-JimnCEgB8Lu71b-h2X-753" value="1..1" style="text;html=1;strokeColor=none;fillColor=none;align=center;verticalAlign=middle;whiteSpace=wrap;rounded=0;" parent="1" vertex="1">
          <mxGeometry x="3590.3123076923075" y="546.5" width="39.38461538461538" height="20" as="geometry" />
        </mxCell>
        <mxCell id="bO2co_WmpKJWhF7x6I0H-6" value="0..*" style="text;html=1;strokeColor=none;fillColor=none;align=center;verticalAlign=middle;whiteSpace=wrap;rounded=0;" parent="1" vertex="1">
          <mxGeometry x="3069.38" y="956.5" width="35" height="24.5" as="geometry" />
        </mxCell>
        <mxCell id="bO2co_WmpKJWhF7x6I0H-11" value="1..1" style="text;html=1;strokeColor=none;fillColor=none;align=center;verticalAlign=middle;whiteSpace=wrap;rounded=0;" parent="1" vertex="1">
          <mxGeometry x="3505" y="561" width="40" height="18" as="geometry" />
        </mxCell>
        <mxCell id="bO2co_WmpKJWhF7x6I0H-12" value="0..*" style="text;html=1;strokeColor=none;fillColor=none;align=center;verticalAlign=middle;whiteSpace=wrap;rounded=0;" parent="1" vertex="1">
          <mxGeometry x="3157.5" y="522" width="35" height="24.5" as="geometry" />
        </mxCell>
        <mxCell id="bO2co_WmpKJWhF7x6I0H-13" value="1..1" style="text;html=1;strokeColor=none;fillColor=none;align=center;verticalAlign=middle;whiteSpace=wrap;rounded=0;" parent="1" vertex="1">
          <mxGeometry x="3356.42" y="862" width="35" height="24.5" as="geometry" />
        </mxCell>
        <mxCell id="J-kP-sCgBBUiAvnzwSTB-1" value="NotificationTour" style="swimlane;fontStyle=1;align=center;verticalAlign=top;childLayout=stackLayout;horizontal=1;startSize=26;horizontalStack=0;resizeParent=1;resizeParentMax=0;resizeLast=0;collapsible=1;marginBottom=0;whiteSpace=wrap;html=1;" parent="1" vertex="1">
          <mxGeometry x="2495" y="826.5" width="280" height="190" as="geometry">
            <mxRectangle x="630" y="1120" width="230" height="30" as="alternateBounds" />
          </mxGeometry>
        </mxCell>
        <mxCell id="J-kP-sCgBBUiAvnzwSTB-2" value="+ Id: int" style="text;strokeColor=none;fillColor=none;align=left;verticalAlign=top;spacingLeft=4;spacingRight=4;overflow=hidden;rotatable=0;points=[[0,0.5],[1,0.5]];portConstraint=eastwest;whiteSpace=wrap;html=1;" parent="J-kP-sCgBBUiAvnzwSTB-1" vertex="1">
          <mxGeometry y="26" width="280" height="26" as="geometry" />
        </mxCell>
        <mxCell id="J-kP-sCgBBUiAvnzwSTB-5" value="+ ContentNotification: string" style="text;strokeColor=none;fillColor=none;align=left;verticalAlign=top;spacingLeft=4;spacingRight=4;overflow=hidden;rotatable=0;points=[[0,0.5],[1,0.5]];portConstraint=eastwest;whiteSpace=wrap;html=1;" parent="J-kP-sCgBBUiAvnzwSTB-1" vertex="1">
          <mxGeometry y="52" width="280" height="26" as="geometry" />
        </mxCell>
        <mxCell id="J-kP-sCgBBUiAvnzwSTB-6" value="+ DateSentNotification: DateTime" style="text;strokeColor=none;fillColor=none;align=left;verticalAlign=top;spacingLeft=4;spacingRight=4;overflow=hidden;rotatable=0;points=[[0,0.5],[1,0.5]];portConstraint=eastwest;whiteSpace=wrap;html=1;" parent="J-kP-sCgBBUiAvnzwSTB-1" vertex="1">
          <mxGeometry y="78" width="280" height="26" as="geometry" />
        </mxCell>
        <mxCell id="J-kP-sCgBBUiAvnzwSTB-7" value="+ Seen: bool" style="text;strokeColor=none;fillColor=none;align=left;verticalAlign=top;spacingLeft=4;spacingRight=4;overflow=hidden;rotatable=0;points=[[0,0.5],[1,0.5]];portConstraint=eastwest;whiteSpace=wrap;html=1;" parent="J-kP-sCgBBUiAvnzwSTB-1" vertex="1">
          <mxGeometry y="104" width="280" height="26" as="geometry" />
        </mxCell>
        <mxCell id="J-kP-sCgBBUiAvnzwSTB-3" value="" style="line;strokeWidth=1;fillColor=none;align=left;verticalAlign=middle;spacingTop=-1;spacingLeft=3;spacingRight=3;rotatable=0;labelPosition=right;points=[];portConstraint=eastwest;strokeColor=inherit;" parent="J-kP-sCgBBUiAvnzwSTB-1" vertex="1">
          <mxGeometry y="130" width="280" height="8" as="geometry" />
        </mxCell>
        <mxCell id="J-kP-sCgBBUiAvnzwSTB-4" value="+&amp;lt;&amp;lt;Implement&amp;gt;&amp;gt;&amp;nbsp;ToCSV(): string[]" style="text;strokeColor=none;fillColor=none;align=left;verticalAlign=top;spacingLeft=4;spacingRight=4;overflow=hidden;rotatable=0;points=[[0,0.5],[1,0.5]];portConstraint=eastwest;whiteSpace=wrap;html=1;" parent="J-kP-sCgBBUiAvnzwSTB-1" vertex="1">
          <mxGeometry y="138" width="280" height="26" as="geometry" />
        </mxCell>
        <mxCell id="J-kP-sCgBBUiAvnzwSTB-25" value="+&amp;lt;&amp;lt;Implement&amp;gt;&amp;gt;&amp;nbsp;FromCSV(string[] values): void" style="text;strokeColor=none;fillColor=none;align=left;verticalAlign=top;spacingLeft=4;spacingRight=4;overflow=hidden;rotatable=0;points=[[0,0.5],[1,0.5]];portConstraint=eastwest;whiteSpace=wrap;html=1;" parent="J-kP-sCgBBUiAvnzwSTB-1" vertex="1">
          <mxGeometry y="164" width="280" height="26" as="geometry" />
        </mxCell>
        <mxCell id="J-kP-sCgBBUiAvnzwSTB-27" value="" style="endArrow=open;endFill=1;endSize=12;html=1;rounded=0;entryX=0.788;entryY=0.006;entryDx=0;entryDy=0;exitX=0.526;exitY=1.014;exitDx=0;exitDy=0;exitPerimeter=0;entryPerimeter=0;" parent="1" source="q-JimnCEgB8Lu71b-h2X-679" target="J-kP-sCgBBUiAvnzwSTB-1" edge="1">
          <mxGeometry width="160" relative="1" as="geometry">
            <mxPoint x="3022.84" y="779.25" as="sourcePoint" />
            <mxPoint x="2712.84" y="833.25" as="targetPoint" />
            <Array as="points">
              <mxPoint x="3022.84" y="778.25" />
              <mxPoint x="3023" y="806.5" />
              <mxPoint x="2715" y="806.5" />
            </Array>
          </mxGeometry>
        </mxCell>
        <mxCell id="J-kP-sCgBBUiAvnzwSTB-30" value="0..*" style="edgeLabel;html=1;align=center;verticalAlign=middle;resizable=0;points=[];" parent="J-kP-sCgBBUiAvnzwSTB-27" vertex="1" connectable="0">
          <mxGeometry x="-0.8453" relative="1" as="geometry">
            <mxPoint x="20" y="-2" as="offset" />
          </mxGeometry>
        </mxCell>
        <mxCell id="J-kP-sCgBBUiAvnzwSTB-34" value="1..1" style="edgeLabel;html=1;align=center;verticalAlign=middle;resizable=0;points=[];" parent="J-kP-sCgBBUiAvnzwSTB-27" vertex="1" connectable="0">
          <mxGeometry x="0.8343" y="3" relative="1" as="geometry">
            <mxPoint x="13" y="-13" as="offset" />
          </mxGeometry>
        </mxCell>
        <mxCell id="J-kP-sCgBBUiAvnzwSTB-32" value="" style="endArrow=open;endFill=1;endSize=12;html=1;rounded=0;entryX=0.578;entryY=0;entryDx=0;entryDy=0;entryPerimeter=0;exitX=0;exitY=0;exitDx=0;exitDy=0;" parent="1" source="q-JimnCEgB8Lu71b-h2X-749" target="J-kP-sCgBBUiAvnzwSTB-1" edge="1">
          <mxGeometry width="160" relative="1" as="geometry">
            <mxPoint x="2345" y="586.5" as="sourcePoint" />
            <mxPoint x="2785" y="686.5" as="targetPoint" />
            <Array as="points">
              <mxPoint x="2435" y="626.5" />
              <mxPoint x="2435" y="796.5" />
              <mxPoint x="2657" y="796.5" />
            </Array>
          </mxGeometry>
        </mxCell>
        <mxCell id="J-kP-sCgBBUiAvnzwSTB-33" value="1..1" style="edgeLabel;html=1;align=center;verticalAlign=middle;resizable=0;points=[];" parent="J-kP-sCgBBUiAvnzwSTB-32" vertex="1" connectable="0">
          <mxGeometry x="0.8975" relative="1" as="geometry">
            <mxPoint x="11" y="1" as="offset" />
          </mxGeometry>
        </mxCell>
        <mxCell id="J-kP-sCgBBUiAvnzwSTB-35" value="0..*" style="edgeLabel;html=1;align=center;verticalAlign=middle;resizable=0;points=[];" parent="J-kP-sCgBBUiAvnzwSTB-32" vertex="1" connectable="0">
          <mxGeometry x="-0.9273" y="-1" relative="1" as="geometry">
            <mxPoint x="-7" y="-11" as="offset" />
          </mxGeometry>
        </mxCell>
        <mxCell id="xcDBQO63yx9ZG5MlVmZU-4" value="" style="endArrow=open;endFill=1;endSize=12;html=1;rounded=0;entryX=1.003;entryY=0.089;entryDx=0;entryDy=0;exitX=0.104;exitY=0.005;exitDx=0;exitDy=0;exitPerimeter=0;entryPerimeter=0;" parent="1" source="q-JimnCEgB8Lu71b-h2X-586" target="J-kP-sCgBBUiAvnzwSTB-1" edge="1">
          <mxGeometry width="160" relative="1" as="geometry">
            <mxPoint x="2855" y="996.5" as="sourcePoint" />
            <mxPoint x="2855" y="786.5" as="targetPoint" />
            <Array as="points">
              <mxPoint x="2855" y="841.5" />
            </Array>
          </mxGeometry>
        </mxCell>
        <mxCell id="xcDBQO63yx9ZG5MlVmZU-5" value="0..*" style="edgeLabel;html=1;align=center;verticalAlign=middle;resizable=0;points=[];" parent="xcDBQO63yx9ZG5MlVmZU-4" vertex="1" connectable="0">
          <mxGeometry x="-0.8609" relative="1" as="geometry">
            <mxPoint x="18" y="2" as="offset" />
          </mxGeometry>
        </mxCell>
        <mxCell id="xcDBQO63yx9ZG5MlVmZU-6" value="1..*" style="edgeLabel;html=1;align=center;verticalAlign=middle;resizable=0;points=[];" parent="xcDBQO63yx9ZG5MlVmZU-4" vertex="1" connectable="0">
          <mxGeometry x="0.7779" relative="1" as="geometry">
            <mxPoint x="8" y="-15" as="offset" />
          </mxGeometry>
        </mxCell>
        <object label="Accommodation" id="_YHsfkz__0NLPyngDBoc-28">
          <mxCell style="swimlane;fontStyle=0;align=center;verticalAlign=top;childLayout=stackLayout;horizontal=1;startSize=26;horizontalStack=0;resizeParent=1;resizeLast=0;collapsible=1;marginBottom=0;rounded=0;shadow=0;strokeWidth=1;" parent="1" vertex="1">
            <mxGeometry x="960" y="384" width="220" height="270" as="geometry">
              <mxRectangle x="230" y="140" width="160" height="26" as="alternateBounds" />
            </mxGeometry>
          </mxCell>
        </object>
        <mxCell id="_YHsfkz__0NLPyngDBoc-29" value="+ Id : int" style="text;align=left;verticalAlign=top;spacingLeft=4;spacingRight=4;overflow=hidden;rotatable=0;points=[[0,0.5],[1,0.5]];portConstraint=eastwest;" parent="_YHsfkz__0NLPyngDBoc-28" vertex="1">
          <mxGeometry y="26" width="220" height="26" as="geometry" />
        </mxCell>
        <mxCell id="_YHsfkz__0NLPyngDBoc-30" value="+ Name : string" style="text;align=left;verticalAlign=top;spacingLeft=4;spacingRight=4;overflow=hidden;rotatable=0;points=[[0,0.5],[1,0.5]];portConstraint=eastwest;rounded=0;shadow=0;html=0;" parent="_YHsfkz__0NLPyngDBoc-28" vertex="1">
          <mxGeometry y="52" width="220" height="26" as="geometry" />
        </mxCell>
        <mxCell id="_YHsfkz__0NLPyngDBoc-31" value="+ Type : AccomodationType" style="text;align=left;verticalAlign=top;spacingLeft=4;spacingRight=4;overflow=hidden;rotatable=0;points=[[0,0.5],[1,0.5]];portConstraint=eastwest;rounded=0;shadow=0;html=0;" parent="_YHsfkz__0NLPyngDBoc-28" vertex="1">
          <mxGeometry y="78" width="220" height="26" as="geometry" />
        </mxCell>
        <mxCell id="_YHsfkz__0NLPyngDBoc-32" value="+ GuestsMaximum : int " style="text;align=left;verticalAlign=top;spacingLeft=4;spacingRight=4;overflow=hidden;rotatable=0;points=[[0,0.5],[1,0.5]];portConstraint=eastwest;rounded=0;shadow=0;html=0;" parent="_YHsfkz__0NLPyngDBoc-28" vertex="1">
          <mxGeometry y="104" width="220" height="26" as="geometry" />
        </mxCell>
        <mxCell id="_YHsfkz__0NLPyngDBoc-33" value="+ MinimumReservationDays : int " style="text;align=left;verticalAlign=top;spacingLeft=4;spacingRight=4;overflow=hidden;rotatable=0;points=[[0,0.5],[1,0.5]];portConstraint=eastwest;rounded=0;shadow=0;html=0;" parent="_YHsfkz__0NLPyngDBoc-28" vertex="1">
          <mxGeometry y="130" width="220" height="26" as="geometry" />
        </mxCell>
        <mxCell id="_YHsfkz__0NLPyngDBoc-34" value="+ DismissalDays : int" style="text;align=left;verticalAlign=top;spacingLeft=4;spacingRight=4;overflow=hidden;rotatable=0;points=[[0,0.5],[1,0.5]];portConstraint=eastwest;rounded=0;shadow=0;html=0;" parent="_YHsfkz__0NLPyngDBoc-28" vertex="1">
          <mxGeometry y="156" width="220" height="26" as="geometry" />
        </mxCell>
        <mxCell id="_YHsfkz__0NLPyngDBoc-35" value="+ Images : List&lt;string&gt;" style="text;align=left;verticalAlign=top;spacingLeft=4;spacingRight=4;overflow=hidden;rotatable=0;points=[[0,0.5],[1,0.5]];portConstraint=eastwest;rounded=0;shadow=0;html=0;" parent="_YHsfkz__0NLPyngDBoc-28" vertex="1">
          <mxGeometry y="182" width="220" height="26" as="geometry" />
        </mxCell>
        <mxCell id="_YHsfkz__0NLPyngDBoc-36" value="" style="line;html=1;strokeWidth=1;align=left;verticalAlign=middle;spacingTop=-1;spacingLeft=3;spacingRight=3;rotatable=0;labelPosition=right;points=[];portConstraint=eastwest;" parent="_YHsfkz__0NLPyngDBoc-28" vertex="1">
          <mxGeometry y="208" width="220" height="8" as="geometry" />
        </mxCell>
        <mxCell id="_YHsfkz__0NLPyngDBoc-37" value="+ FromCSV(values : string[]) : void" style="text;align=left;verticalAlign=top;spacingLeft=4;spacingRight=4;overflow=hidden;rotatable=0;points=[[0,0.5],[1,0.5]];portConstraint=eastwest;" parent="_YHsfkz__0NLPyngDBoc-28" vertex="1">
          <mxGeometry y="216" width="220" height="26" as="geometry" />
        </mxCell>
        <mxCell id="_YHsfkz__0NLPyngDBoc-38" value="+ ToCSV() : string" style="text;align=left;verticalAlign=top;spacingLeft=4;spacingRight=4;overflow=hidden;rotatable=0;points=[[0,0.5],[1,0.5]];portConstraint=eastwest;" parent="_YHsfkz__0NLPyngDBoc-28" vertex="1">
          <mxGeometry y="242" width="220" height="26" as="geometry" />
        </mxCell>
        <mxCell id="_YHsfkz__0NLPyngDBoc-39" value="Owner" style="swimlane;fontStyle=0;align=center;verticalAlign=top;childLayout=stackLayout;horizontal=1;startSize=26;horizontalStack=0;resizeParent=1;resizeLast=0;collapsible=1;marginBottom=0;rounded=0;shadow=0;strokeWidth=1;" parent="1" vertex="1">
          <mxGeometry x="1700" y="574" width="220" height="250" as="geometry">
            <mxRectangle x="340" y="380" width="170" height="26" as="alternateBounds" />
          </mxGeometry>
        </mxCell>
        <mxCell id="_YHsfkz__0NLPyngDBoc-40" value="+ Id : int" style="text;align=left;verticalAlign=top;spacingLeft=4;spacingRight=4;overflow=hidden;rotatable=0;points=[[0,0.5],[1,0.5]];portConstraint=eastwest;" parent="_YHsfkz__0NLPyngDBoc-39" vertex="1">
          <mxGeometry y="26" width="220" height="26" as="geometry" />
        </mxCell>
        <mxCell id="_YHsfkz__0NLPyngDBoc-41" value="+ Name : string" style="text;align=left;verticalAlign=top;spacingLeft=4;spacingRight=4;overflow=hidden;rotatable=0;points=[[0,0.5],[1,0.5]];portConstraint=eastwest;" parent="_YHsfkz__0NLPyngDBoc-39" vertex="1">
          <mxGeometry y="52" width="220" height="26" as="geometry" />
        </mxCell>
        <mxCell id="_YHsfkz__0NLPyngDBoc-42" value="+ Surname : string" style="text;align=left;verticalAlign=top;spacingLeft=4;spacingRight=4;overflow=hidden;rotatable=0;points=[[0,0.5],[1,0.5]];portConstraint=eastwest;" parent="_YHsfkz__0NLPyngDBoc-39" vertex="1">
          <mxGeometry y="78" width="220" height="26" as="geometry" />
        </mxCell>
        <mxCell id="_YHsfkz__0NLPyngDBoc-43" value="+ Address : string" style="text;align=left;verticalAlign=top;spacingLeft=4;spacingRight=4;overflow=hidden;rotatable=0;points=[[0,0.5],[1,0.5]];portConstraint=eastwest;" parent="_YHsfkz__0NLPyngDBoc-39" vertex="1">
          <mxGeometry y="104" width="220" height="26" as="geometry" />
        </mxCell>
        <mxCell id="_YHsfkz__0NLPyngDBoc-44" value="+ Email : string" style="text;align=left;verticalAlign=top;spacingLeft=4;spacingRight=4;overflow=hidden;rotatable=0;points=[[0,0.5],[1,0.5]];portConstraint=eastwest;" parent="_YHsfkz__0NLPyngDBoc-39" vertex="1">
          <mxGeometry y="130" width="220" height="26" as="geometry" />
        </mxCell>
        <mxCell id="_YHsfkz__0NLPyngDBoc-45" value="+ SuperOwner : bool" style="text;align=left;verticalAlign=top;spacingLeft=4;spacingRight=4;overflow=hidden;rotatable=0;points=[[0,0.5],[1,0.5]];portConstraint=eastwest;" parent="_YHsfkz__0NLPyngDBoc-39" vertex="1">
          <mxGeometry y="156" width="220" height="26" as="geometry" />
        </mxCell>
        <mxCell id="_YHsfkz__0NLPyngDBoc-46" value="" style="line;html=1;strokeWidth=1;align=left;verticalAlign=middle;spacingTop=-1;spacingLeft=3;spacingRight=3;rotatable=0;labelPosition=right;points=[];portConstraint=eastwest;" parent="_YHsfkz__0NLPyngDBoc-39" vertex="1">
          <mxGeometry y="182" width="220" height="8" as="geometry" />
        </mxCell>
        <mxCell id="_YHsfkz__0NLPyngDBoc-47" value="+ FromCSV(values : string[]) : void" style="text;align=left;verticalAlign=top;spacingLeft=4;spacingRight=4;overflow=hidden;rotatable=0;points=[[0,0.5],[1,0.5]];portConstraint=eastwest;" parent="_YHsfkz__0NLPyngDBoc-39" vertex="1">
          <mxGeometry y="190" width="220" height="26" as="geometry" />
        </mxCell>
        <mxCell id="_YHsfkz__0NLPyngDBoc-48" value="+ ToCSV() : string" style="text;align=left;verticalAlign=top;spacingLeft=4;spacingRight=4;overflow=hidden;rotatable=0;points=[[0,0.5],[1,0.5]];portConstraint=eastwest;" parent="_YHsfkz__0NLPyngDBoc-39" vertex="1">
          <mxGeometry y="216" width="220" height="26" as="geometry" />
        </mxCell>
        <mxCell id="_YHsfkz__0NLPyngDBoc-49" value="Location" style="swimlane;fontStyle=0;align=center;verticalAlign=top;childLayout=stackLayout;horizontal=1;startSize=26;horizontalStack=0;resizeParent=1;resizeLast=0;collapsible=1;marginBottom=0;rounded=0;shadow=0;strokeWidth=1;" parent="1" vertex="1">
          <mxGeometry x="550" y="314" width="200" height="170" as="geometry">
            <mxRectangle x="550" y="140" width="160" height="26" as="alternateBounds" />
          </mxGeometry>
        </mxCell>
        <mxCell id="_YHsfkz__0NLPyngDBoc-50" value="+ Id : int" style="text;align=left;verticalAlign=top;spacingLeft=4;spacingRight=4;overflow=hidden;rotatable=0;points=[[0,0.5],[1,0.5]];portConstraint=eastwest;" parent="_YHsfkz__0NLPyngDBoc-49" vertex="1">
          <mxGeometry y="26" width="200" height="26" as="geometry" />
        </mxCell>
        <mxCell id="_YHsfkz__0NLPyngDBoc-51" value="+ City : string" style="text;align=left;verticalAlign=top;spacingLeft=4;spacingRight=4;overflow=hidden;rotatable=0;points=[[0,0.5],[1,0.5]];portConstraint=eastwest;rounded=0;shadow=0;html=0;" parent="_YHsfkz__0NLPyngDBoc-49" vertex="1">
          <mxGeometry y="52" width="200" height="26" as="geometry" />
        </mxCell>
        <mxCell id="_YHsfkz__0NLPyngDBoc-52" value="+ Country : string" style="text;align=left;verticalAlign=top;spacingLeft=4;spacingRight=4;overflow=hidden;rotatable=0;points=[[0,0.5],[1,0.5]];portConstraint=eastwest;rounded=0;shadow=0;html=0;" parent="_YHsfkz__0NLPyngDBoc-49" vertex="1">
          <mxGeometry y="78" width="200" height="26" as="geometry" />
        </mxCell>
        <mxCell id="_YHsfkz__0NLPyngDBoc-53" value="" style="line;html=1;strokeWidth=1;align=left;verticalAlign=middle;spacingTop=-1;spacingLeft=3;spacingRight=3;rotatable=0;labelPosition=right;points=[];portConstraint=eastwest;" parent="_YHsfkz__0NLPyngDBoc-49" vertex="1">
          <mxGeometry y="104" width="200" height="8" as="geometry" />
        </mxCell>
        <mxCell id="_YHsfkz__0NLPyngDBoc-54" value="+ FromCSV(values : string[]) : void" style="text;align=left;verticalAlign=top;spacingLeft=4;spacingRight=4;overflow=hidden;rotatable=0;points=[[0,0.5],[1,0.5]];portConstraint=eastwest;" parent="_YHsfkz__0NLPyngDBoc-49" vertex="1">
          <mxGeometry y="112" width="200" height="26" as="geometry" />
        </mxCell>
        <mxCell id="_YHsfkz__0NLPyngDBoc-55" value="+ ToCSV() : string" style="text;align=left;verticalAlign=top;spacingLeft=4;spacingRight=4;overflow=hidden;rotatable=0;points=[[0,0.5],[1,0.5]];portConstraint=eastwest;" parent="_YHsfkz__0NLPyngDBoc-49" vertex="1">
          <mxGeometry y="138" width="200" height="26" as="geometry" />
        </mxCell>
        <mxCell id="_YHsfkz__0NLPyngDBoc-56" value="" style="endArrow=open;shadow=0;strokeWidth=1;rounded=0;endFill=1;edgeStyle=elbowEdgeStyle;elbow=vertical;exitX=0;exitY=0.5;exitDx=0;exitDy=0;" parent="1" source="_YHsfkz__0NLPyngDBoc-30" target="_YHsfkz__0NLPyngDBoc-49" edge="1">
          <mxGeometry x="0.5" y="41" relative="1" as="geometry">
            <mxPoint x="960" y="204" as="sourcePoint" />
            <mxPoint x="1140" y="296" as="targetPoint" />
            <mxPoint x="-40" y="32" as="offset" />
          </mxGeometry>
        </mxCell>
        <mxCell id="_YHsfkz__0NLPyngDBoc-57" value="1..1" style="resizable=0;align=left;verticalAlign=bottom;labelBackgroundColor=none;fontSize=12;" parent="_YHsfkz__0NLPyngDBoc-56" connectable="0" vertex="1">
          <mxGeometry x="-1" relative="1" as="geometry">
            <mxPoint x="-30" as="offset" />
          </mxGeometry>
        </mxCell>
        <mxCell id="_YHsfkz__0NLPyngDBoc-58" value="0..*" style="resizable=0;align=right;verticalAlign=bottom;labelBackgroundColor=none;fontSize=12;" parent="_YHsfkz__0NLPyngDBoc-56" connectable="0" vertex="1">
          <mxGeometry x="1" relative="1" as="geometry">
            <mxPoint x="30" as="offset" />
          </mxGeometry>
        </mxCell>
        <mxCell id="_YHsfkz__0NLPyngDBoc-59" value="&lt;span style=&quot;font-weight: normal;&quot;&gt;AccommodationReservation&lt;/span&gt;" style="swimlane;fontStyle=1;align=center;verticalAlign=top;childLayout=stackLayout;horizontal=1;startSize=26;horizontalStack=0;resizeParent=1;resizeParentMax=0;resizeLast=0;collapsible=1;marginBottom=0;whiteSpace=wrap;html=1;" parent="1" vertex="1">
          <mxGeometry x="1340" y="284" width="220" height="268" as="geometry" />
        </mxCell>
        <mxCell id="_YHsfkz__0NLPyngDBoc-60" value="+ Id: int" style="text;strokeColor=none;fillColor=none;align=left;verticalAlign=top;spacingLeft=4;spacingRight=4;overflow=hidden;rotatable=0;points=[[0,0.5],[1,0.5]];portConstraint=eastwest;whiteSpace=wrap;html=1;" parent="_YHsfkz__0NLPyngDBoc-59" vertex="1">
          <mxGeometry y="26" width="220" height="26" as="geometry" />
        </mxCell>
        <mxCell id="_YHsfkz__0NLPyngDBoc-61" value="+ CheckInDate: DateOnly" style="text;strokeColor=none;fillColor=none;align=left;verticalAlign=top;spacingLeft=4;spacingRight=4;overflow=hidden;rotatable=0;points=[[0,0.5],[1,0.5]];portConstraint=eastwest;whiteSpace=wrap;html=1;" parent="_YHsfkz__0NLPyngDBoc-59" vertex="1">
          <mxGeometry y="52" width="220" height="26" as="geometry" />
        </mxCell>
        <mxCell id="_YHsfkz__0NLPyngDBoc-62" value="+ CheckOutDate: DateOnly" style="text;strokeColor=none;fillColor=none;align=left;verticalAlign=top;spacingLeft=4;spacingRight=4;overflow=hidden;rotatable=0;points=[[0,0.5],[1,0.5]];portConstraint=eastwest;whiteSpace=wrap;html=1;" parent="_YHsfkz__0NLPyngDBoc-59" vertex="1">
          <mxGeometry y="78" width="220" height="26" as="geometry" />
        </mxCell>
        <mxCell id="_YHsfkz__0NLPyngDBoc-63" value="+ GuestNumber: int" style="text;strokeColor=none;fillColor=none;align=left;verticalAlign=top;spacingLeft=4;spacingRight=4;overflow=hidden;rotatable=0;points=[[0,0.5],[1,0.5]];portConstraint=eastwest;whiteSpace=wrap;html=1;" parent="_YHsfkz__0NLPyngDBoc-59" vertex="1">
          <mxGeometry y="104" width="220" height="26" as="geometry" />
        </mxCell>
        <mxCell id="_YHsfkz__0NLPyngDBoc-64" value="+ State&amp;nbsp;: ReservationState" style="text;strokeColor=none;fillColor=none;align=left;verticalAlign=top;spacingLeft=4;spacingRight=4;overflow=hidden;rotatable=0;points=[[0,0.5],[1,0.5]];portConstraint=eastwest;whiteSpace=wrap;html=1;" parent="_YHsfkz__0NLPyngDBoc-59" vertex="1">
          <mxGeometry y="130" width="220" height="26" as="geometry" />
        </mxCell>
        <mxCell id="_YHsfkz__0NLPyngDBoc-65" value="+ RateAccommodation: bool" style="text;strokeColor=none;fillColor=none;align=left;verticalAlign=top;spacingLeft=4;spacingRight=4;overflow=hidden;rotatable=0;points=[[0,0.5],[1,0.5]];portConstraint=eastwest;whiteSpace=wrap;html=1;" parent="_YHsfkz__0NLPyngDBoc-59" vertex="1">
          <mxGeometry y="156" width="220" height="26" as="geometry" />
        </mxCell>
        <mxCell id="_YHsfkz__0NLPyngDBoc-66" value="+ RatedGuest: bool" style="text;strokeColor=none;fillColor=none;align=left;verticalAlign=top;spacingLeft=4;spacingRight=4;overflow=hidden;rotatable=0;points=[[0,0.5],[1,0.5]];portConstraint=eastwest;whiteSpace=wrap;html=1;" parent="_YHsfkz__0NLPyngDBoc-59" vertex="1">
          <mxGeometry y="182" width="220" height="26" as="geometry" />
        </mxCell>
        <mxCell id="_YHsfkz__0NLPyngDBoc-67" value="" style="line;strokeWidth=1;fillColor=none;align=left;verticalAlign=middle;spacingTop=-1;spacingLeft=3;spacingRight=3;rotatable=0;labelPosition=right;points=[];portConstraint=eastwest;strokeColor=inherit;" parent="_YHsfkz__0NLPyngDBoc-59" vertex="1">
          <mxGeometry y="208" width="220" height="8" as="geometry" />
        </mxCell>
        <mxCell id="_YHsfkz__0NLPyngDBoc-68" value="+ FromCSV(values : string[]) : void" style="text;align=left;verticalAlign=top;spacingLeft=4;spacingRight=4;overflow=hidden;rotatable=0;points=[[0,0.5],[1,0.5]];portConstraint=eastwest;" parent="_YHsfkz__0NLPyngDBoc-59" vertex="1">
          <mxGeometry y="216" width="220" height="26" as="geometry" />
        </mxCell>
        <mxCell id="_YHsfkz__0NLPyngDBoc-69" value="+ ToCSV() : string" style="text;align=left;verticalAlign=top;spacingLeft=4;spacingRight=4;overflow=hidden;rotatable=0;points=[[0,0.5],[1,0.5]];portConstraint=eastwest;" parent="_YHsfkz__0NLPyngDBoc-59" vertex="1">
          <mxGeometry y="242" width="220" height="26" as="geometry" />
        </mxCell>
        <mxCell id="_YHsfkz__0NLPyngDBoc-70" value="Guest1" style="swimlane;fontStyle=0;align=center;verticalAlign=top;childLayout=stackLayout;horizontal=1;startSize=26;horizontalStack=0;resizeParent=1;resizeLast=0;collapsible=1;marginBottom=0;rounded=0;shadow=0;strokeWidth=1;" parent="1" vertex="1">
          <mxGeometry x="1690" y="314" width="220" height="242" as="geometry">
            <mxRectangle x="340" y="380" width="170" height="26" as="alternateBounds" />
          </mxGeometry>
        </mxCell>
        <mxCell id="_YHsfkz__0NLPyngDBoc-71" value="+ Id : int" style="text;align=left;verticalAlign=top;spacingLeft=4;spacingRight=4;overflow=hidden;rotatable=0;points=[[0,0.5],[1,0.5]];portConstraint=eastwest;" parent="_YHsfkz__0NLPyngDBoc-70" vertex="1">
          <mxGeometry y="26" width="220" height="26" as="geometry" />
        </mxCell>
        <mxCell id="_YHsfkz__0NLPyngDBoc-72" value="+ Name : string" style="text;align=left;verticalAlign=top;spacingLeft=4;spacingRight=4;overflow=hidden;rotatable=0;points=[[0,0.5],[1,0.5]];portConstraint=eastwest;" parent="_YHsfkz__0NLPyngDBoc-70" vertex="1">
          <mxGeometry y="52" width="220" height="26" as="geometry" />
        </mxCell>
        <mxCell id="_YHsfkz__0NLPyngDBoc-73" value="+ Surname : string" style="text;align=left;verticalAlign=top;spacingLeft=4;spacingRight=4;overflow=hidden;rotatable=0;points=[[0,0.5],[1,0.5]];portConstraint=eastwest;" parent="_YHsfkz__0NLPyngDBoc-70" vertex="1">
          <mxGeometry y="78" width="220" height="26" as="geometry" />
        </mxCell>
        <mxCell id="_YHsfkz__0NLPyngDBoc-74" value="+ Address : string" style="text;align=left;verticalAlign=top;spacingLeft=4;spacingRight=4;overflow=hidden;rotatable=0;points=[[0,0.5],[1,0.5]];portConstraint=eastwest;" parent="_YHsfkz__0NLPyngDBoc-70" vertex="1">
          <mxGeometry y="104" width="220" height="26" as="geometry" />
        </mxCell>
        <mxCell id="_YHsfkz__0NLPyngDBoc-75" value="+ Email : string" style="text;align=left;verticalAlign=top;spacingLeft=4;spacingRight=4;overflow=hidden;rotatable=0;points=[[0,0.5],[1,0.5]];portConstraint=eastwest;" parent="_YHsfkz__0NLPyngDBoc-70" vertex="1">
          <mxGeometry y="130" width="220" height="26" as="geometry" />
        </mxCell>
        <mxCell id="_YHsfkz__0NLPyngDBoc-76" value="+ SuperGuestId : int" style="text;align=left;verticalAlign=top;spacingLeft=4;spacingRight=4;overflow=hidden;rotatable=0;points=[[0,0.5],[1,0.5]];portConstraint=eastwest;" parent="_YHsfkz__0NLPyngDBoc-70" vertex="1">
          <mxGeometry y="156" width="220" height="26" as="geometry" />
        </mxCell>
        <mxCell id="_YHsfkz__0NLPyngDBoc-77" value="" style="line;html=1;strokeWidth=1;align=left;verticalAlign=middle;spacingTop=-1;spacingLeft=3;spacingRight=3;rotatable=0;labelPosition=right;points=[];portConstraint=eastwest;" parent="_YHsfkz__0NLPyngDBoc-70" vertex="1">
          <mxGeometry y="182" width="220" height="8" as="geometry" />
        </mxCell>
        <mxCell id="_YHsfkz__0NLPyngDBoc-78" value="+ FromCSV(values : string[]) : void" style="text;align=left;verticalAlign=top;spacingLeft=4;spacingRight=4;overflow=hidden;rotatable=0;points=[[0,0.5],[1,0.5]];portConstraint=eastwest;" parent="_YHsfkz__0NLPyngDBoc-70" vertex="1">
          <mxGeometry y="190" width="220" height="26" as="geometry" />
        </mxCell>
        <mxCell id="_YHsfkz__0NLPyngDBoc-79" value="+ ToCSV() : string" style="text;align=left;verticalAlign=top;spacingLeft=4;spacingRight=4;overflow=hidden;rotatable=0;points=[[0,0.5],[1,0.5]];portConstraint=eastwest;" parent="_YHsfkz__0NLPyngDBoc-70" vertex="1">
          <mxGeometry y="216" width="220" height="26" as="geometry" />
        </mxCell>
        <mxCell id="_YHsfkz__0NLPyngDBoc-80" value="" style="endArrow=open;endFill=1;endSize=12;html=1;rounded=0;entryX=1;entryY=0.5;entryDx=0;entryDy=0;exitX=0.014;exitY=1.385;exitDx=0;exitDy=0;exitPerimeter=0;" parent="1" source="_YHsfkz__0NLPyngDBoc-73" target="_YHsfkz__0NLPyngDBoc-64" edge="1">
          <mxGeometry width="160" relative="1" as="geometry">
            <mxPoint x="1170" y="404" as="sourcePoint" />
            <mxPoint x="1330" y="404" as="targetPoint" />
          </mxGeometry>
        </mxCell>
        <mxCell id="_YHsfkz__0NLPyngDBoc-81" value="" style="endArrow=open;endFill=1;endSize=12;html=1;rounded=0;entryX=0;entryY=0.5;entryDx=0;entryDy=0;exitX=1.007;exitY=-0.235;exitDx=0;exitDy=0;exitPerimeter=0;" parent="1" source="_YHsfkz__0NLPyngDBoc-31" target="_YHsfkz__0NLPyngDBoc-65" edge="1">
          <mxGeometry width="160" relative="1" as="geometry">
            <mxPoint x="980" y="204" as="sourcePoint" />
            <mxPoint x="1140" y="204" as="targetPoint" />
          </mxGeometry>
        </mxCell>
        <mxCell id="_YHsfkz__0NLPyngDBoc-82" value="0..*" style="resizable=0;align=left;verticalAlign=bottom;labelBackgroundColor=none;fontSize=12;" parent="1" connectable="0" vertex="1">
          <mxGeometry x="1185" y="164" as="geometry">
            <mxPoint y="286" as="offset" />
          </mxGeometry>
        </mxCell>
        <mxCell id="_YHsfkz__0NLPyngDBoc-83" value="0..1" style="text;html=1;strokeColor=none;fillColor=none;align=center;verticalAlign=middle;whiteSpace=wrap;rounded=0;" parent="1" vertex="1">
          <mxGeometry x="1290" y="484" width="60" height="30" as="geometry" />
        </mxCell>
        <mxCell id="_YHsfkz__0NLPyngDBoc-84" value="1..1" style="text;html=1;strokeColor=none;fillColor=none;align=center;verticalAlign=middle;whiteSpace=wrap;rounded=0;" parent="1" vertex="1">
          <mxGeometry x="1550" y="394" width="60" height="30" as="geometry" />
        </mxCell>
        <mxCell id="_YHsfkz__0NLPyngDBoc-85" value="0..*" style="text;html=1;strokeColor=none;fillColor=none;align=center;verticalAlign=middle;whiteSpace=wrap;rounded=0;" parent="1" vertex="1">
          <mxGeometry x="1640" y="394" width="60" height="30" as="geometry" />
        </mxCell>
        <mxCell id="_YHsfkz__0NLPyngDBoc-86" value="1..1" style="text;html=1;strokeColor=none;fillColor=none;align=center;verticalAlign=middle;whiteSpace=wrap;rounded=0;" parent="1" vertex="1">
          <mxGeometry x="1180" y="612" width="60" height="30" as="geometry" />
        </mxCell>
        <mxCell id="_YHsfkz__0NLPyngDBoc-87" value="0..*" style="text;html=1;strokeColor=none;fillColor=none;align=center;verticalAlign=middle;whiteSpace=wrap;rounded=0;" parent="1" vertex="1">
          <mxGeometry x="1640" y="604" width="60" height="30" as="geometry" />
        </mxCell>
        <mxCell id="_YHsfkz__0NLPyngDBoc-88" value="AccommodationSchedule" style="swimlane;fontStyle=0;align=center;verticalAlign=top;childLayout=stackLayout;horizontal=1;startSize=26;horizontalStack=0;resizeParent=1;resizeLast=0;collapsible=1;marginBottom=0;rounded=0;shadow=0;strokeWidth=1;" parent="1" vertex="1">
          <mxGeometry x="550" y="539" width="230" height="120" as="geometry">
            <mxRectangle x="340" y="380" width="170" height="26" as="alternateBounds" />
          </mxGeometry>
        </mxCell>
        <mxCell id="_YHsfkz__0NLPyngDBoc-89" value="+ Id : int" style="text;align=left;verticalAlign=top;spacingLeft=4;spacingRight=4;overflow=hidden;rotatable=0;points=[[0,0.5],[1,0.5]];portConstraint=eastwest;" parent="_YHsfkz__0NLPyngDBoc-88" vertex="1">
          <mxGeometry y="26" width="230" height="26" as="geometry" />
        </mxCell>
        <mxCell id="_YHsfkz__0NLPyngDBoc-90" value="" style="line;html=1;strokeWidth=1;align=left;verticalAlign=middle;spacingTop=-1;spacingLeft=3;spacingRight=3;rotatable=0;labelPosition=right;points=[];portConstraint=eastwest;" parent="_YHsfkz__0NLPyngDBoc-88" vertex="1">
          <mxGeometry y="52" width="230" height="8" as="geometry" />
        </mxCell>
        <mxCell id="_YHsfkz__0NLPyngDBoc-91" value="+ FromCSV(values : string[]) : void" style="text;align=left;verticalAlign=top;spacingLeft=4;spacingRight=4;overflow=hidden;rotatable=0;points=[[0,0.5],[1,0.5]];portConstraint=eastwest;" parent="_YHsfkz__0NLPyngDBoc-88" vertex="1">
          <mxGeometry y="60" width="230" height="26" as="geometry" />
        </mxCell>
        <mxCell id="_YHsfkz__0NLPyngDBoc-92" value="+ ToCSV() : string" style="text;align=left;verticalAlign=top;spacingLeft=4;spacingRight=4;overflow=hidden;rotatable=0;points=[[0,0.5],[1,0.5]];portConstraint=eastwest;" parent="_YHsfkz__0NLPyngDBoc-88" vertex="1">
          <mxGeometry y="86" width="230" height="26" as="geometry" />
        </mxCell>
        <mxCell id="_YHsfkz__0NLPyngDBoc-93" value="1..1" style="text;html=1;strokeColor=none;fillColor=none;align=center;verticalAlign=middle;whiteSpace=wrap;rounded=0;" parent="1" vertex="1">
          <mxGeometry x="780" y="604" width="60" height="30" as="geometry" />
        </mxCell>
        <mxCell id="_YHsfkz__0NLPyngDBoc-94" value="1..1" style="text;html=1;strokeColor=none;fillColor=none;align=center;verticalAlign=middle;whiteSpace=wrap;rounded=0;" parent="1" vertex="1">
          <mxGeometry x="905" y="604" width="60" height="30" as="geometry" />
        </mxCell>
        <object label="AccommodationAndOwnerRating" id="_YHsfkz__0NLPyngDBoc-95">
          <mxCell style="swimlane;fontStyle=0;align=center;verticalAlign=top;childLayout=stackLayout;horizontal=1;startSize=26;horizontalStack=0;resizeParent=1;resizeLast=0;collapsible=1;marginBottom=0;rounded=0;shadow=0;strokeWidth=1;" parent="1" vertex="1">
            <mxGeometry x="965" y="686" width="220" height="268" as="geometry">
              <mxRectangle x="230" y="140" width="160" height="26" as="alternateBounds" />
            </mxGeometry>
          </mxCell>
        </object>
        <mxCell id="_YHsfkz__0NLPyngDBoc-96" value="+ Id : int" style="text;align=left;verticalAlign=top;spacingLeft=4;spacingRight=4;overflow=hidden;rotatable=0;points=[[0,0.5],[1,0.5]];portConstraint=eastwest;" parent="_YHsfkz__0NLPyngDBoc-95" vertex="1">
          <mxGeometry y="26" width="220" height="26" as="geometry" />
        </mxCell>
        <mxCell id="_YHsfkz__0NLPyngDBoc-97" value="+ Cleanliness : double" style="text;align=left;verticalAlign=top;spacingLeft=4;spacingRight=4;overflow=hidden;rotatable=0;points=[[0,0.5],[1,0.5]];portConstraint=eastwest;rounded=0;shadow=0;html=0;" parent="_YHsfkz__0NLPyngDBoc-95" vertex="1">
          <mxGeometry y="52" width="220" height="26" as="geometry" />
        </mxCell>
        <mxCell id="_YHsfkz__0NLPyngDBoc-98" value="+ OwnerFairness : double" style="text;align=left;verticalAlign=top;spacingLeft=4;spacingRight=4;overflow=hidden;rotatable=0;points=[[0,0.5],[1,0.5]];portConstraint=eastwest;rounded=0;shadow=0;html=0;" parent="_YHsfkz__0NLPyngDBoc-95" vertex="1">
          <mxGeometry y="78" width="220" height="26" as="geometry" />
        </mxCell>
        <mxCell id="_YHsfkz__0NLPyngDBoc-99" value="+ Location : double " style="text;align=left;verticalAlign=top;spacingLeft=4;spacingRight=4;overflow=hidden;rotatable=0;points=[[0,0.5],[1,0.5]];portConstraint=eastwest;rounded=0;shadow=0;html=0;" parent="_YHsfkz__0NLPyngDBoc-95" vertex="1">
          <mxGeometry y="104" width="220" height="26" as="geometry" />
        </mxCell>
        <mxCell id="_YHsfkz__0NLPyngDBoc-100" value="+ ValueForMoney : double " style="text;align=left;verticalAlign=top;spacingLeft=4;spacingRight=4;overflow=hidden;rotatable=0;points=[[0,0.5],[1,0.5]];portConstraint=eastwest;rounded=0;shadow=0;html=0;" parent="_YHsfkz__0NLPyngDBoc-95" vertex="1">
          <mxGeometry y="130" width="220" height="26" as="geometry" />
        </mxCell>
        <mxCell id="_YHsfkz__0NLPyngDBoc-101" value="+ Comment : string" style="text;align=left;verticalAlign=top;spacingLeft=4;spacingRight=4;overflow=hidden;rotatable=0;points=[[0,0.5],[1,0.5]];portConstraint=eastwest;rounded=0;shadow=0;html=0;" parent="_YHsfkz__0NLPyngDBoc-95" vertex="1">
          <mxGeometry y="156" width="220" height="26" as="geometry" />
        </mxCell>
        <mxCell id="_YHsfkz__0NLPyngDBoc-102" value="+ Images : List&lt;string&gt;" style="text;align=left;verticalAlign=top;spacingLeft=4;spacingRight=4;overflow=hidden;rotatable=0;points=[[0,0.5],[1,0.5]];portConstraint=eastwest;rounded=0;shadow=0;html=0;" parent="_YHsfkz__0NLPyngDBoc-95" vertex="1">
          <mxGeometry y="182" width="220" height="26" as="geometry" />
        </mxCell>
        <mxCell id="_YHsfkz__0NLPyngDBoc-103" value="" style="line;html=1;strokeWidth=1;align=left;verticalAlign=middle;spacingTop=-1;spacingLeft=3;spacingRight=3;rotatable=0;labelPosition=right;points=[];portConstraint=eastwest;" parent="_YHsfkz__0NLPyngDBoc-95" vertex="1">
          <mxGeometry y="208" width="220" height="8" as="geometry" />
        </mxCell>
        <mxCell id="_YHsfkz__0NLPyngDBoc-104" value="+ FromCSV(values : string[]) : void" style="text;align=left;verticalAlign=top;spacingLeft=4;spacingRight=4;overflow=hidden;rotatable=0;points=[[0,0.5],[1,0.5]];portConstraint=eastwest;" parent="_YHsfkz__0NLPyngDBoc-95" vertex="1">
          <mxGeometry y="216" width="220" height="26" as="geometry" />
        </mxCell>
        <mxCell id="_YHsfkz__0NLPyngDBoc-105" value="+ ToCSV() : string" style="text;align=left;verticalAlign=top;spacingLeft=4;spacingRight=4;overflow=hidden;rotatable=0;points=[[0,0.5],[1,0.5]];portConstraint=eastwest;" parent="_YHsfkz__0NLPyngDBoc-95" vertex="1">
          <mxGeometry y="242" width="220" height="26" as="geometry" />
        </mxCell>
        <mxCell id="_YHsfkz__0NLPyngDBoc-106" value="" style="endArrow=open;endFill=1;endSize=12;html=1;rounded=0;exitX=0;exitY=0.5;exitDx=0;exitDy=0;entryX=1;entryY=0.5;entryDx=0;entryDy=0;" parent="1" source="_YHsfkz__0NLPyngDBoc-66" target="_YHsfkz__0NLPyngDBoc-97" edge="1">
          <mxGeometry width="160" relative="1" as="geometry">
            <mxPoint x="920" y="574" as="sourcePoint" />
            <mxPoint x="1300" y="594" as="targetPoint" />
            <Array as="points">
              <mxPoint x="1250" y="479" />
              <mxPoint x="1250" y="751" />
            </Array>
          </mxGeometry>
        </mxCell>
        <mxCell id="_YHsfkz__0NLPyngDBoc-107" value="1..1" style="text;html=1;strokeColor=none;fillColor=none;align=center;verticalAlign=middle;whiteSpace=wrap;rounded=0;" parent="1" vertex="1">
          <mxGeometry x="1185" y="714" width="60" height="30" as="geometry" />
        </mxCell>
        <mxCell id="_YHsfkz__0NLPyngDBoc-108" value="1..1" style="text;html=1;strokeColor=none;fillColor=none;align=center;verticalAlign=middle;whiteSpace=wrap;rounded=0;" parent="1" vertex="1">
          <mxGeometry x="1290" y="424" width="60" height="30" as="geometry" />
        </mxCell>
        <object label="GuestRating" id="_YHsfkz__0NLPyngDBoc-109">
          <mxCell style="swimlane;fontStyle=0;align=center;verticalAlign=top;childLayout=stackLayout;horizontal=1;startSize=26;horizontalStack=0;resizeParent=1;resizeLast=0;collapsible=1;marginBottom=0;rounded=0;shadow=0;strokeWidth=1;" parent="1" vertex="1">
            <mxGeometry x="1330" y="684" width="220" height="270" as="geometry">
              <mxRectangle x="730" y="410" width="160" height="26" as="alternateBounds" />
            </mxGeometry>
          </mxCell>
        </object>
        <mxCell id="_YHsfkz__0NLPyngDBoc-110" value="+ Id : int" style="text;align=left;verticalAlign=top;spacingLeft=4;spacingRight=4;overflow=hidden;rotatable=0;points=[[0,0.5],[1,0.5]];portConstraint=eastwest;" parent="_YHsfkz__0NLPyngDBoc-109" vertex="1">
          <mxGeometry y="26" width="220" height="26" as="geometry" />
        </mxCell>
        <mxCell id="_YHsfkz__0NLPyngDBoc-111" value="+ Cleanliness : int" style="text;align=left;verticalAlign=top;spacingLeft=4;spacingRight=4;overflow=hidden;rotatable=0;points=[[0,0.5],[1,0.5]];portConstraint=eastwest;rounded=0;shadow=0;html=0;" parent="_YHsfkz__0NLPyngDBoc-109" vertex="1">
          <mxGeometry y="52" width="220" height="26" as="geometry" />
        </mxCell>
        <mxCell id="_YHsfkz__0NLPyngDBoc-112" value="+ RespectingRules : int" style="text;align=left;verticalAlign=top;spacingLeft=4;spacingRight=4;overflow=hidden;rotatable=0;points=[[0,0.5],[1,0.5]];portConstraint=eastwest;rounded=0;shadow=0;html=0;" parent="_YHsfkz__0NLPyngDBoc-109" vertex="1">
          <mxGeometry y="78" width="220" height="26" as="geometry" />
        </mxCell>
        <mxCell id="_YHsfkz__0NLPyngDBoc-113" value="+ Tidiness : int " style="text;align=left;verticalAlign=top;spacingLeft=4;spacingRight=4;overflow=hidden;rotatable=0;points=[[0,0.5],[1,0.5]];portConstraint=eastwest;rounded=0;shadow=0;html=0;" parent="_YHsfkz__0NLPyngDBoc-109" vertex="1">
          <mxGeometry y="104" width="220" height="26" as="geometry" />
        </mxCell>
        <mxCell id="_YHsfkz__0NLPyngDBoc-114" value="+ Communication : int " style="text;align=left;verticalAlign=top;spacingLeft=4;spacingRight=4;overflow=hidden;rotatable=0;points=[[0,0.5],[1,0.5]];portConstraint=eastwest;rounded=0;shadow=0;html=0;" parent="_YHsfkz__0NLPyngDBoc-109" vertex="1">
          <mxGeometry y="130" width="220" height="26" as="geometry" />
        </mxCell>
        <mxCell id="_YHsfkz__0NLPyngDBoc-115" value="+ Comment : string" style="text;align=left;verticalAlign=top;spacingLeft=4;spacingRight=4;overflow=hidden;rotatable=0;points=[[0,0.5],[1,0.5]];portConstraint=eastwest;rounded=0;shadow=0;html=0;" parent="_YHsfkz__0NLPyngDBoc-109" vertex="1">
          <mxGeometry y="156" width="220" height="26" as="geometry" />
        </mxCell>
        <mxCell id="_YHsfkz__0NLPyngDBoc-116" value="+ TimeStamp : DateOnly" style="text;align=left;verticalAlign=top;spacingLeft=4;spacingRight=4;overflow=hidden;rotatable=0;points=[[0,0.5],[1,0.5]];portConstraint=eastwest;rounded=0;shadow=0;html=0;" parent="_YHsfkz__0NLPyngDBoc-109" vertex="1">
          <mxGeometry y="182" width="220" height="26" as="geometry" />
        </mxCell>
        <mxCell id="_YHsfkz__0NLPyngDBoc-117" value="" style="line;html=1;strokeWidth=1;align=left;verticalAlign=middle;spacingTop=-1;spacingLeft=3;spacingRight=3;rotatable=0;labelPosition=right;points=[];portConstraint=eastwest;" parent="_YHsfkz__0NLPyngDBoc-109" vertex="1">
          <mxGeometry y="208" width="220" height="8" as="geometry" />
        </mxCell>
        <mxCell id="_YHsfkz__0NLPyngDBoc-118" value="+ FromCSV(values : string[]) : void" style="text;align=left;verticalAlign=top;spacingLeft=4;spacingRight=4;overflow=hidden;rotatable=0;points=[[0,0.5],[1,0.5]];portConstraint=eastwest;" parent="_YHsfkz__0NLPyngDBoc-109" vertex="1">
          <mxGeometry y="216" width="220" height="26" as="geometry" />
        </mxCell>
        <mxCell id="_YHsfkz__0NLPyngDBoc-119" value="+ ToCSV() : string" style="text;align=left;verticalAlign=top;spacingLeft=4;spacingRight=4;overflow=hidden;rotatable=0;points=[[0,0.5],[1,0.5]];portConstraint=eastwest;" parent="_YHsfkz__0NLPyngDBoc-109" vertex="1">
          <mxGeometry y="242" width="220" height="26" as="geometry" />
        </mxCell>
        <mxCell id="_YHsfkz__0NLPyngDBoc-120" value="" style="endArrow=open;endFill=1;endSize=12;html=1;rounded=0;entryX=0.5;entryY=0;entryDx=0;entryDy=0;" parent="1" target="_YHsfkz__0NLPyngDBoc-109" edge="1">
          <mxGeometry width="160" relative="1" as="geometry">
            <mxPoint x="1440" y="554" as="sourcePoint" />
            <mxPoint x="1433" y="514" as="targetPoint" />
          </mxGeometry>
        </mxCell>
        <mxCell id="_YHsfkz__0NLPyngDBoc-121" value="1..1" style="text;html=1;strokeColor=none;fillColor=none;align=center;verticalAlign=middle;whiteSpace=wrap;rounded=0;" parent="1" vertex="1">
          <mxGeometry x="1380" y="648" width="60" height="30" as="geometry" />
        </mxCell>
        <mxCell id="_YHsfkz__0NLPyngDBoc-122" value="0..1" style="text;html=1;strokeColor=none;fillColor=none;align=center;verticalAlign=middle;whiteSpace=wrap;rounded=0;" parent="1" vertex="1">
          <mxGeometry x="1390" y="556" width="60" height="30" as="geometry" />
        </mxCell>
        <mxCell id="_YHsfkz__0NLPyngDBoc-123" value="RenovationRecommendation" style="swimlane;fontStyle=0;align=center;verticalAlign=top;childLayout=stackLayout;horizontal=1;startSize=26;horizontalStack=0;resizeParent=1;resizeLast=0;collapsible=1;marginBottom=0;rounded=0;shadow=0;strokeWidth=1;" parent="1" vertex="1">
          <mxGeometry x="550" y="784" width="230" height="164" as="geometry">
            <mxRectangle x="340" y="380" width="170" height="26" as="alternateBounds" />
          </mxGeometry>
        </mxCell>
        <mxCell id="_YHsfkz__0NLPyngDBoc-124" value="+ Id : int" style="text;align=left;verticalAlign=top;spacingLeft=4;spacingRight=4;overflow=hidden;rotatable=0;points=[[0,0.5],[1,0.5]];portConstraint=eastwest;" parent="_YHsfkz__0NLPyngDBoc-123" vertex="1">
          <mxGeometry y="26" width="230" height="26" as="geometry" />
        </mxCell>
        <mxCell id="_YHsfkz__0NLPyngDBoc-125" value="+ RenovationUrgency : int" style="text;align=left;verticalAlign=top;spacingLeft=4;spacingRight=4;overflow=hidden;rotatable=0;points=[[0,0.5],[1,0.5]];portConstraint=eastwest;" parent="_YHsfkz__0NLPyngDBoc-123" vertex="1">
          <mxGeometry y="52" width="230" height="26" as="geometry" />
        </mxCell>
        <mxCell id="_YHsfkz__0NLPyngDBoc-126" value="+ Recommendations : string" style="text;align=left;verticalAlign=top;spacingLeft=4;spacingRight=4;overflow=hidden;rotatable=0;points=[[0,0.5],[1,0.5]];portConstraint=eastwest;" parent="_YHsfkz__0NLPyngDBoc-123" vertex="1">
          <mxGeometry y="78" width="230" height="26" as="geometry" />
        </mxCell>
        <mxCell id="_YHsfkz__0NLPyngDBoc-127" value="" style="line;html=1;strokeWidth=1;align=left;verticalAlign=middle;spacingTop=-1;spacingLeft=3;spacingRight=3;rotatable=0;labelPosition=right;points=[];portConstraint=eastwest;" parent="_YHsfkz__0NLPyngDBoc-123" vertex="1">
          <mxGeometry y="104" width="230" height="8" as="geometry" />
        </mxCell>
        <mxCell id="_YHsfkz__0NLPyngDBoc-128" value="+ FromCSV(values : string[]) : void" style="text;align=left;verticalAlign=top;spacingLeft=4;spacingRight=4;overflow=hidden;rotatable=0;points=[[0,0.5],[1,0.5]];portConstraint=eastwest;" parent="_YHsfkz__0NLPyngDBoc-123" vertex="1">
          <mxGeometry y="112" width="230" height="26" as="geometry" />
        </mxCell>
        <mxCell id="_YHsfkz__0NLPyngDBoc-129" value="+ ToCSV() : string" style="text;align=left;verticalAlign=top;spacingLeft=4;spacingRight=4;overflow=hidden;rotatable=0;points=[[0,0.5],[1,0.5]];portConstraint=eastwest;" parent="_YHsfkz__0NLPyngDBoc-123" vertex="1">
          <mxGeometry y="138" width="230" height="26" as="geometry" />
        </mxCell>
        <mxCell id="_YHsfkz__0NLPyngDBoc-130" value="1..1" style="text;html=1;strokeColor=none;fillColor=none;align=center;verticalAlign=middle;whiteSpace=wrap;rounded=0;" parent="1" vertex="1">
          <mxGeometry x="780" y="804" width="60" height="30" as="geometry" />
        </mxCell>
        <mxCell id="_YHsfkz__0NLPyngDBoc-131" value="0..1" style="text;html=1;strokeColor=none;fillColor=none;align=center;verticalAlign=middle;whiteSpace=wrap;rounded=0;" parent="1" vertex="1">
          <mxGeometry x="905" y="805" width="60" height="30" as="geometry" />
        </mxCell>
        <mxCell id="_YHsfkz__0NLPyngDBoc-132" value="&lt;span style=&quot;font-weight: normal;&quot;&gt;Request&lt;/span&gt;" style="swimlane;fontStyle=1;align=center;verticalAlign=top;childLayout=stackLayout;horizontal=1;startSize=26;horizontalStack=0;resizeParent=1;resizeParentMax=0;resizeLast=0;collapsible=1;marginBottom=0;whiteSpace=wrap;html=1;" parent="1" vertex="1">
          <mxGeometry x="1160" y="974" width="220" height="216" as="geometry" />
        </mxCell>
        <mxCell id="_YHsfkz__0NLPyngDBoc-133" value="+ Id: int" style="text;strokeColor=none;fillColor=none;align=left;verticalAlign=top;spacingLeft=4;spacingRight=4;overflow=hidden;rotatable=0;points=[[0,0.5],[1,0.5]];portConstraint=eastwest;whiteSpace=wrap;html=1;" parent="_YHsfkz__0NLPyngDBoc-132" vertex="1">
          <mxGeometry y="26" width="220" height="26" as="geometry" />
        </mxCell>
        <mxCell id="_YHsfkz__0NLPyngDBoc-134" value="+ ChangeDate : DateOnly" style="text;strokeColor=none;fillColor=none;align=left;verticalAlign=top;spacingLeft=4;spacingRight=4;overflow=hidden;rotatable=0;points=[[0,0.5],[1,0.5]];portConstraint=eastwest;whiteSpace=wrap;html=1;" parent="_YHsfkz__0NLPyngDBoc-132" vertex="1">
          <mxGeometry y="52" width="220" height="26" as="geometry" />
        </mxCell>
        <mxCell id="_YHsfkz__0NLPyngDBoc-135" value="+ State : RequestState" style="text;strokeColor=none;fillColor=none;align=left;verticalAlign=top;spacingLeft=4;spacingRight=4;overflow=hidden;rotatable=0;points=[[0,0.5],[1,0.5]];portConstraint=eastwest;whiteSpace=wrap;html=1;" parent="_YHsfkz__0NLPyngDBoc-132" vertex="1">
          <mxGeometry y="78" width="220" height="26" as="geometry" />
        </mxCell>
        <mxCell id="_YHsfkz__0NLPyngDBoc-136" value="+ OwnerComment : string" style="text;strokeColor=none;fillColor=none;align=left;verticalAlign=top;spacingLeft=4;spacingRight=4;overflow=hidden;rotatable=0;points=[[0,0.5],[1,0.5]];portConstraint=eastwest;whiteSpace=wrap;html=1;" parent="_YHsfkz__0NLPyngDBoc-132" vertex="1">
          <mxGeometry y="104" width="220" height="26" as="geometry" />
        </mxCell>
        <mxCell id="_YHsfkz__0NLPyngDBoc-137" value="+ Reserved : bool" style="text;strokeColor=none;fillColor=none;align=left;verticalAlign=top;spacingLeft=4;spacingRight=4;overflow=hidden;rotatable=0;points=[[0,0.5],[1,0.5]];portConstraint=eastwest;whiteSpace=wrap;html=1;" parent="_YHsfkz__0NLPyngDBoc-132" vertex="1">
          <mxGeometry y="130" width="220" height="26" as="geometry" />
        </mxCell>
        <mxCell id="_YHsfkz__0NLPyngDBoc-138" value="" style="line;strokeWidth=1;fillColor=none;align=left;verticalAlign=middle;spacingTop=-1;spacingLeft=3;spacingRight=3;rotatable=0;labelPosition=right;points=[];portConstraint=eastwest;strokeColor=inherit;" parent="_YHsfkz__0NLPyngDBoc-132" vertex="1">
          <mxGeometry y="156" width="220" height="8" as="geometry" />
        </mxCell>
        <mxCell id="_YHsfkz__0NLPyngDBoc-139" value="+ FromCSV(values : string[]) : void" style="text;align=left;verticalAlign=top;spacingLeft=4;spacingRight=4;overflow=hidden;rotatable=0;points=[[0,0.5],[1,0.5]];portConstraint=eastwest;" parent="_YHsfkz__0NLPyngDBoc-132" vertex="1">
          <mxGeometry y="164" width="220" height="26" as="geometry" />
        </mxCell>
        <mxCell id="_YHsfkz__0NLPyngDBoc-140" value="+ ToCSV() : string" style="text;align=left;verticalAlign=top;spacingLeft=4;spacingRight=4;overflow=hidden;rotatable=0;points=[[0,0.5],[1,0.5]];portConstraint=eastwest;" parent="_YHsfkz__0NLPyngDBoc-132" vertex="1">
          <mxGeometry y="190" width="220" height="26" as="geometry" />
        </mxCell>
        <mxCell id="_YHsfkz__0NLPyngDBoc-141" value="" style="endArrow=open;endFill=1;endSize=12;html=1;rounded=0;entryX=0.5;entryY=0;entryDx=0;entryDy=0;exitX=0;exitY=0.5;exitDx=0;exitDy=0;" parent="1" source="_YHsfkz__0NLPyngDBoc-60" target="_YHsfkz__0NLPyngDBoc-132" edge="1">
          <mxGeometry width="160" relative="1" as="geometry">
            <mxPoint x="1330" y="321" as="sourcePoint" />
            <mxPoint x="1270" y="794" as="targetPoint" />
            <Array as="points">
              <mxPoint x="1270" y="321" />
              <mxPoint x="1270" y="559" />
            </Array>
          </mxGeometry>
        </mxCell>
        <mxCell id="_YHsfkz__0NLPyngDBoc-142" value="" style="endArrow=open;endFill=1;endSize=12;html=1;rounded=0;entryX=0;entryY=0.5;entryDx=0;entryDy=0;exitX=1;exitY=0.5;exitDx=0;exitDy=0;" parent="1" source="_YHsfkz__0NLPyngDBoc-92" target="_YHsfkz__0NLPyngDBoc-38" edge="1">
          <mxGeometry width="160" relative="1" as="geometry">
            <mxPoint x="890" y="294" as="sourcePoint" />
            <mxPoint x="1050" y="294" as="targetPoint" />
          </mxGeometry>
        </mxCell>
        <mxCell id="_YHsfkz__0NLPyngDBoc-143" value="DateRanges" style="swimlane;fontStyle=0;align=center;verticalAlign=top;childLayout=stackLayout;horizontal=1;startSize=26;horizontalStack=0;resizeParent=1;resizeLast=0;collapsible=1;marginBottom=0;rounded=0;shadow=0;strokeWidth=1;" parent="1" vertex="1">
          <mxGeometry x="225" y="572.5" width="230" height="86" as="geometry">
            <mxRectangle x="340" y="380" width="170" height="26" as="alternateBounds" />
          </mxGeometry>
        </mxCell>
        <mxCell id="_YHsfkz__0NLPyngDBoc-144" value="+ CheckIn : DateOnly" style="text;align=left;verticalAlign=top;spacingLeft=4;spacingRight=4;overflow=hidden;rotatable=0;points=[[0,0.5],[1,0.5]];portConstraint=eastwest;" parent="_YHsfkz__0NLPyngDBoc-143" vertex="1">
          <mxGeometry y="26" width="230" height="26" as="geometry" />
        </mxCell>
        <mxCell id="_YHsfkz__0NLPyngDBoc-145" value="+ CheckOut : DateOnly" style="text;align=left;verticalAlign=top;spacingLeft=4;spacingRight=4;overflow=hidden;rotatable=0;points=[[0,0.5],[1,0.5]];portConstraint=eastwest;" parent="_YHsfkz__0NLPyngDBoc-143" vertex="1">
          <mxGeometry y="52" width="230" height="26" as="geometry" />
        </mxCell>
        <mxCell id="_YHsfkz__0NLPyngDBoc-146" value="" style="line;html=1;strokeWidth=1;align=left;verticalAlign=middle;spacingTop=-1;spacingLeft=3;spacingRight=3;rotatable=0;labelPosition=right;points=[];portConstraint=eastwest;" parent="_YHsfkz__0NLPyngDBoc-143" vertex="1">
          <mxGeometry y="78" width="230" height="8" as="geometry" />
        </mxCell>
        <mxCell id="_YHsfkz__0NLPyngDBoc-147" value="1..1" style="text;html=1;strokeColor=none;fillColor=none;align=center;verticalAlign=middle;whiteSpace=wrap;rounded=0;" parent="1" vertex="1">
          <mxGeometry x="450" y="561" width="60" height="30" as="geometry" />
        </mxCell>
        <mxCell id="_YHsfkz__0NLPyngDBoc-148" value="SuperGuest" style="swimlane;fontStyle=0;align=center;verticalAlign=top;childLayout=stackLayout;horizontal=1;startSize=26;horizontalStack=0;resizeParent=1;resizeLast=0;collapsible=1;marginBottom=0;rounded=0;shadow=0;strokeWidth=1;" parent="1" vertex="1">
          <mxGeometry x="1730" y="30" width="220" height="170" as="geometry">
            <mxRectangle x="340" y="380" width="170" height="26" as="alternateBounds" />
          </mxGeometry>
        </mxCell>
        <mxCell id="_YHsfkz__0NLPyngDBoc-149" value="+ Id : int" style="text;align=left;verticalAlign=top;spacingLeft=4;spacingRight=4;overflow=hidden;rotatable=0;points=[[0,0.5],[1,0.5]];portConstraint=eastwest;" parent="_YHsfkz__0NLPyngDBoc-148" vertex="1">
          <mxGeometry y="26" width="220" height="26" as="geometry" />
        </mxCell>
        <mxCell id="_YHsfkz__0NLPyngDBoc-150" value="+ StartDate : DateOnly" style="text;align=left;verticalAlign=top;spacingLeft=4;spacingRight=4;overflow=hidden;rotatable=0;points=[[0,0.5],[1,0.5]];portConstraint=eastwest;" parent="_YHsfkz__0NLPyngDBoc-148" vertex="1">
          <mxGeometry y="52" width="220" height="26" as="geometry" />
        </mxCell>
        <mxCell id="_YHsfkz__0NLPyngDBoc-151" value="+ BonusPoints : int" style="text;align=left;verticalAlign=top;spacingLeft=4;spacingRight=4;overflow=hidden;rotatable=0;points=[[0,0.5],[1,0.5]];portConstraint=eastwest;" parent="_YHsfkz__0NLPyngDBoc-148" vertex="1">
          <mxGeometry y="78" width="220" height="26" as="geometry" />
        </mxCell>
        <mxCell id="_YHsfkz__0NLPyngDBoc-152" value="" style="line;html=1;strokeWidth=1;align=left;verticalAlign=middle;spacingTop=-1;spacingLeft=3;spacingRight=3;rotatable=0;labelPosition=right;points=[];portConstraint=eastwest;" parent="_YHsfkz__0NLPyngDBoc-148" vertex="1">
          <mxGeometry y="104" width="220" height="8" as="geometry" />
        </mxCell>
        <mxCell id="_YHsfkz__0NLPyngDBoc-153" value="+ FromCSV(values : string[]) : void" style="text;align=left;verticalAlign=top;spacingLeft=4;spacingRight=4;overflow=hidden;rotatable=0;points=[[0,0.5],[1,0.5]];portConstraint=eastwest;" parent="_YHsfkz__0NLPyngDBoc-148" vertex="1">
          <mxGeometry y="112" width="220" height="26" as="geometry" />
        </mxCell>
        <mxCell id="_YHsfkz__0NLPyngDBoc-154" value="+ ToCSV() : string" style="text;align=left;verticalAlign=top;spacingLeft=4;spacingRight=4;overflow=hidden;rotatable=0;points=[[0,0.5],[1,0.5]];portConstraint=eastwest;" parent="_YHsfkz__0NLPyngDBoc-148" vertex="1">
          <mxGeometry y="138" width="220" height="26" as="geometry" />
        </mxCell>
        <mxCell id="_YHsfkz__0NLPyngDBoc-155" value="" style="endArrow=open;endFill=1;endSize=12;html=1;rounded=0;entryX=0.591;entryY=-0.017;entryDx=0;entryDy=0;entryPerimeter=0;" parent="1" target="_YHsfkz__0NLPyngDBoc-70" edge="1">
          <mxGeometry width="160" relative="1" as="geometry">
            <mxPoint x="1820" y="200" as="sourcePoint" />
            <mxPoint x="2010" y="414" as="targetPoint" />
          </mxGeometry>
        </mxCell>
        <mxCell id="_YHsfkz__0NLPyngDBoc-156" value="0..1" style="text;html=1;strokeColor=none;fillColor=none;align=center;verticalAlign=middle;whiteSpace=wrap;rounded=0;" parent="1" vertex="1">
          <mxGeometry x="1810" y="270" width="60" height="30" as="geometry" />
        </mxCell>
        <mxCell id="_YHsfkz__0NLPyngDBoc-157" value="1..1" style="text;html=1;strokeColor=none;fillColor=none;align=center;verticalAlign=middle;whiteSpace=wrap;rounded=0;" parent="1" vertex="1">
          <mxGeometry x="1810" y="206.5" width="60" height="30" as="geometry" />
        </mxCell>
        <mxCell id="_YHsfkz__0NLPyngDBoc-158" value="" style="endArrow=open;endFill=1;endSize=12;html=1;rounded=0;entryX=0.007;entryY=1.074;entryDx=0;entryDy=0;entryPerimeter=0;exitX=1;exitY=0.25;exitDx=0;exitDy=0;" parent="1" source="_YHsfkz__0NLPyngDBoc-143" target="_YHsfkz__0NLPyngDBoc-89" edge="1">
          <mxGeometry width="160" relative="1" as="geometry">
            <mxPoint x="420" y="364" as="sourcePoint" />
            <mxPoint x="560" y="364" as="targetPoint" />
          </mxGeometry>
        </mxCell>
        <mxCell id="_YHsfkz__0NLPyngDBoc-159" value="0..*" style="text;html=1;strokeColor=none;fillColor=none;align=center;verticalAlign=middle;whiteSpace=wrap;rounded=0;" parent="1" vertex="1">
          <mxGeometry x="490" y="564" width="60" height="30" as="geometry" />
        </mxCell>
        <mxCell id="_YHsfkz__0NLPyngDBoc-160" value="1..1" style="text;html=1;strokeColor=none;fillColor=none;align=center;verticalAlign=middle;whiteSpace=wrap;rounded=0;" parent="1" vertex="1">
          <mxGeometry x="1210" y="934" width="60" height="30" as="geometry" />
        </mxCell>
        <mxCell id="_YHsfkz__0NLPyngDBoc-161" value="0..*" style="text;html=1;strokeColor=none;fillColor=none;align=center;verticalAlign=middle;whiteSpace=wrap;rounded=0;" parent="1" vertex="1">
          <mxGeometry x="1280" y="290" width="60" height="30" as="geometry" />
        </mxCell>
        <mxCell id="_YHsfkz__0NLPyngDBoc-162" value="&lt;&lt;enumeration&gt;&gt;&#xa;AccommodationType" style="swimlane;fontStyle=0;align=center;verticalAlign=top;childLayout=stackLayout;horizontal=1;startSize=40;horizontalStack=0;resizeParent=1;resizeLast=0;collapsible=1;marginBottom=0;rounded=0;shadow=0;strokeWidth=1;" parent="1" vertex="1">
          <mxGeometry x="950" y="164" width="230" height="126" as="geometry">
            <mxRectangle x="340" y="380" width="170" height="26" as="alternateBounds" />
          </mxGeometry>
        </mxCell>
        <mxCell id="_YHsfkz__0NLPyngDBoc-163" value="Kuca" style="text;align=left;verticalAlign=top;spacingLeft=4;spacingRight=4;overflow=hidden;rotatable=0;points=[[0,0.5],[1,0.5]];portConstraint=eastwest;" parent="_YHsfkz__0NLPyngDBoc-162" vertex="1">
          <mxGeometry y="40" width="230" height="26" as="geometry" />
        </mxCell>
        <mxCell id="_YHsfkz__0NLPyngDBoc-164" value="Apartman" style="text;align=left;verticalAlign=top;spacingLeft=4;spacingRight=4;overflow=hidden;rotatable=0;points=[[0,0.5],[1,0.5]];portConstraint=eastwest;" parent="_YHsfkz__0NLPyngDBoc-162" vertex="1">
          <mxGeometry y="66" width="230" height="26" as="geometry" />
        </mxCell>
        <mxCell id="_YHsfkz__0NLPyngDBoc-165" value="Koliba" style="text;align=left;verticalAlign=top;spacingLeft=4;spacingRight=4;overflow=hidden;rotatable=0;points=[[0,0.5],[1,0.5]];portConstraint=eastwest;" parent="_YHsfkz__0NLPyngDBoc-162" vertex="1">
          <mxGeometry y="92" width="230" height="26" as="geometry" />
        </mxCell>
        <mxCell id="_YHsfkz__0NLPyngDBoc-166" value="" style="line;html=1;strokeWidth=1;align=left;verticalAlign=middle;spacingTop=-1;spacingLeft=3;spacingRight=3;rotatable=0;labelPosition=right;points=[];portConstraint=eastwest;" parent="_YHsfkz__0NLPyngDBoc-162" vertex="1">
          <mxGeometry y="118" width="230" height="8" as="geometry" />
        </mxCell>
        <mxCell id="_YHsfkz__0NLPyngDBoc-167" value="" style="endArrow=none;html=1;edgeStyle=orthogonalEdgeStyle;rounded=0;entryX=0.418;entryY=0;entryDx=0;entryDy=0;entryPerimeter=0;" parent="1" target="_YHsfkz__0NLPyngDBoc-28" edge="1">
          <mxGeometry relative="1" as="geometry">
            <mxPoint x="1052" y="286" as="sourcePoint" />
            <mxPoint x="1052" y="374" as="targetPoint" />
            <Array as="points" />
          </mxGeometry>
        </mxCell>
        <mxCell id="_YHsfkz__0NLPyngDBoc-168" value="" style="endArrow=none;html=1;edgeStyle=orthogonalEdgeStyle;rounded=0;exitX=1;exitY=0.5;exitDx=0;exitDy=0;entryX=0;entryY=0.5;entryDx=0;entryDy=0;" parent="1" source="_YHsfkz__0NLPyngDBoc-38" target="_YHsfkz__0NLPyngDBoc-41" edge="1">
          <mxGeometry relative="1" as="geometry">
            <mxPoint x="1400" y="614" as="sourcePoint" />
            <mxPoint x="1580" y="404" as="targetPoint" />
          </mxGeometry>
        </mxCell>
        <mxCell id="_YHsfkz__0NLPyngDBoc-169" value="&lt;&lt;enumeration&gt;&gt;&#xa;ReservationState" style="swimlane;fontStyle=0;align=center;verticalAlign=top;childLayout=stackLayout;horizontal=1;startSize=40;horizontalStack=0;resizeParent=1;resizeLast=0;collapsible=1;marginBottom=0;rounded=0;shadow=0;strokeWidth=1;" parent="1" vertex="1">
          <mxGeometry x="1335" y="134" width="230" height="100" as="geometry">
            <mxRectangle x="340" y="380" width="170" height="26" as="alternateBounds" />
          </mxGeometry>
        </mxCell>
        <mxCell id="_YHsfkz__0NLPyngDBoc-170" value="Active" style="text;align=left;verticalAlign=top;spacingLeft=4;spacingRight=4;overflow=hidden;rotatable=0;points=[[0,0.5],[1,0.5]];portConstraint=eastwest;" parent="_YHsfkz__0NLPyngDBoc-169" vertex="1">
          <mxGeometry y="40" width="230" height="26" as="geometry" />
        </mxCell>
        <mxCell id="_YHsfkz__0NLPyngDBoc-171" value="Canceled" style="text;align=left;verticalAlign=top;spacingLeft=4;spacingRight=4;overflow=hidden;rotatable=0;points=[[0,0.5],[1,0.5]];portConstraint=eastwest;" parent="_YHsfkz__0NLPyngDBoc-169" vertex="1">
          <mxGeometry y="66" width="230" height="26" as="geometry" />
        </mxCell>
        <mxCell id="_YHsfkz__0NLPyngDBoc-172" value="" style="line;html=1;strokeWidth=1;align=left;verticalAlign=middle;spacingTop=-1;spacingLeft=3;spacingRight=3;rotatable=0;labelPosition=right;points=[];portConstraint=eastwest;" parent="_YHsfkz__0NLPyngDBoc-169" vertex="1">
          <mxGeometry y="92" width="230" height="8" as="geometry" />
        </mxCell>
        <mxCell id="_YHsfkz__0NLPyngDBoc-173" value="" style="endArrow=none;html=1;edgeStyle=orthogonalEdgeStyle;rounded=0;" parent="1" edge="1">
          <mxGeometry relative="1" as="geometry">
            <mxPoint x="1450" y="234" as="sourcePoint" />
            <mxPoint x="1450" y="274" as="targetPoint" />
            <Array as="points">
              <mxPoint x="1450" y="284" />
              <mxPoint x="1450" y="284" />
            </Array>
          </mxGeometry>
        </mxCell>
        <mxCell id="_YHsfkz__0NLPyngDBoc-174" value="" style="endArrow=diamondThin;endFill=1;endSize=24;html=1;rounded=0;entryX=0.004;entryY=-0.212;entryDx=0;entryDy=0;entryPerimeter=0;" parent="1" target="_YHsfkz__0NLPyngDBoc-101" edge="1">
          <mxGeometry width="160" relative="1" as="geometry">
            <mxPoint x="780" y="836" as="sourcePoint" />
            <mxPoint x="950" y="894" as="targetPoint" />
          </mxGeometry>
        </mxCell>
        <mxCell id="_YHsfkz__0NLPyngDBoc-175" value="&lt;&lt;enumeration&gt;&gt;&#xa;RequestState" style="swimlane;fontStyle=0;align=center;verticalAlign=top;childLayout=stackLayout;horizontal=1;startSize=40;horizontalStack=0;resizeParent=1;resizeLast=0;collapsible=1;marginBottom=0;rounded=0;shadow=0;strokeWidth=1;" parent="1" vertex="1">
          <mxGeometry x="1480" y="1019" width="230" height="126" as="geometry">
            <mxRectangle x="340" y="380" width="170" height="26" as="alternateBounds" />
          </mxGeometry>
        </mxCell>
        <mxCell id="_YHsfkz__0NLPyngDBoc-176" value="Approved" style="text;align=left;verticalAlign=top;spacingLeft=4;spacingRight=4;overflow=hidden;rotatable=0;points=[[0,0.5],[1,0.5]];portConstraint=eastwest;" parent="_YHsfkz__0NLPyngDBoc-175" vertex="1">
          <mxGeometry y="40" width="230" height="26" as="geometry" />
        </mxCell>
        <mxCell id="_YHsfkz__0NLPyngDBoc-177" value="Rejected" style="text;align=left;verticalAlign=top;spacingLeft=4;spacingRight=4;overflow=hidden;rotatable=0;points=[[0,0.5],[1,0.5]];portConstraint=eastwest;" parent="_YHsfkz__0NLPyngDBoc-175" vertex="1">
          <mxGeometry y="66" width="230" height="26" as="geometry" />
        </mxCell>
        <mxCell id="_YHsfkz__0NLPyngDBoc-178" value="Waiting" style="text;align=left;verticalAlign=top;spacingLeft=4;spacingRight=4;overflow=hidden;rotatable=0;points=[[0,0.5],[1,0.5]];portConstraint=eastwest;" parent="_YHsfkz__0NLPyngDBoc-175" vertex="1">
          <mxGeometry y="92" width="230" height="26" as="geometry" />
        </mxCell>
        <mxCell id="_YHsfkz__0NLPyngDBoc-179" value="" style="line;html=1;strokeWidth=1;align=left;verticalAlign=middle;spacingTop=-1;spacingLeft=3;spacingRight=3;rotatable=0;labelPosition=right;points=[];portConstraint=eastwest;" parent="_YHsfkz__0NLPyngDBoc-175" vertex="1">
          <mxGeometry y="118" width="230" height="8" as="geometry" />
        </mxCell>
        <mxCell id="_YHsfkz__0NLPyngDBoc-180" value="" style="endArrow=none;html=1;edgeStyle=orthogonalEdgeStyle;rounded=0;entryX=1;entryY=0.5;entryDx=0;entryDy=0;" parent="1" target="_YHsfkz__0NLPyngDBoc-136" edge="1">
          <mxGeometry relative="1" as="geometry">
            <mxPoint x="1480" y="1091" as="sourcePoint" />
            <mxPoint x="1430" y="1162" as="targetPoint" />
            <Array as="points" />
          </mxGeometry>
        </mxCell>
        <mxCell id="_YHsfkz__0NLPyngDBoc-181" value="RenovationSchedule" style="swimlane;fontStyle=0;align=center;verticalAlign=top;childLayout=stackLayout;horizontal=1;startSize=26;horizontalStack=0;resizeParent=1;resizeLast=0;collapsible=1;marginBottom=0;rounded=0;shadow=0;strokeWidth=1;" parent="1" vertex="1">
          <mxGeometry x="560" y="120" width="200" height="170" as="geometry">
            <mxRectangle x="550" y="140" width="160" height="26" as="alternateBounds" />
          </mxGeometry>
        </mxCell>
        <mxCell id="_YHsfkz__0NLPyngDBoc-182" value="+ Id : int" style="text;align=left;verticalAlign=top;spacingLeft=4;spacingRight=4;overflow=hidden;rotatable=0;points=[[0,0.5],[1,0.5]];portConstraint=eastwest;" parent="_YHsfkz__0NLPyngDBoc-181" vertex="1">
          <mxGeometry y="26" width="200" height="26" as="geometry" />
        </mxCell>
        <mxCell id="_YHsfkz__0NLPyngDBoc-183" value="+ Description : string" style="text;align=left;verticalAlign=top;spacingLeft=4;spacingRight=4;overflow=hidden;rotatable=0;points=[[0,0.5],[1,0.5]];portConstraint=eastwest;rounded=0;shadow=0;html=0;" parent="_YHsfkz__0NLPyngDBoc-181" vertex="1">
          <mxGeometry y="52" width="200" height="26" as="geometry" />
        </mxCell>
        <mxCell id="_YHsfkz__0NLPyngDBoc-184" value="+ Duration : int" style="text;align=left;verticalAlign=top;spacingLeft=4;spacingRight=4;overflow=hidden;rotatable=0;points=[[0,0.5],[1,0.5]];portConstraint=eastwest;rounded=0;shadow=0;html=0;" parent="_YHsfkz__0NLPyngDBoc-181" vertex="1">
          <mxGeometry y="78" width="200" height="26" as="geometry" />
        </mxCell>
        <mxCell id="_YHsfkz__0NLPyngDBoc-185" value="" style="line;html=1;strokeWidth=1;align=left;verticalAlign=middle;spacingTop=-1;spacingLeft=3;spacingRight=3;rotatable=0;labelPosition=right;points=[];portConstraint=eastwest;" parent="_YHsfkz__0NLPyngDBoc-181" vertex="1">
          <mxGeometry y="104" width="200" height="8" as="geometry" />
        </mxCell>
        <mxCell id="_YHsfkz__0NLPyngDBoc-186" value="+ FromCSV(values : string[]) : void" style="text;align=left;verticalAlign=top;spacingLeft=4;spacingRight=4;overflow=hidden;rotatable=0;points=[[0,0.5],[1,0.5]];portConstraint=eastwest;" parent="_YHsfkz__0NLPyngDBoc-181" vertex="1">
          <mxGeometry y="112" width="200" height="26" as="geometry" />
        </mxCell>
        <mxCell id="_YHsfkz__0NLPyngDBoc-187" value="+ ToCSV() : string" style="text;align=left;verticalAlign=top;spacingLeft=4;spacingRight=4;overflow=hidden;rotatable=0;points=[[0,0.5],[1,0.5]];portConstraint=eastwest;" parent="_YHsfkz__0NLPyngDBoc-181" vertex="1">
          <mxGeometry y="138" width="200" height="26" as="geometry" />
        </mxCell>
        <mxCell id="_YHsfkz__0NLPyngDBoc-188" value="" style="endArrow=open;endFill=1;endSize=12;html=1;rounded=0;exitX=0.614;exitY=0.033;exitDx=0;exitDy=0;exitPerimeter=0;entryX=-0.025;entryY=-0.13;entryDx=0;entryDy=0;entryPerimeter=0;" parent="1" source="_YHsfkz__0NLPyngDBoc-143" target="_YHsfkz__0NLPyngDBoc-183" edge="1">
          <mxGeometry width="160" relative="1" as="geometry">
            <mxPoint x="300" y="474" as="sourcePoint" />
            <mxPoint x="460" y="474" as="targetPoint" />
            <Array as="points">
              <mxPoint x="366" y="169" />
            </Array>
          </mxGeometry>
        </mxCell>
        <mxCell id="_YHsfkz__0NLPyngDBoc-189" value="1..1" style="text;html=1;strokeColor=none;fillColor=none;align=center;verticalAlign=middle;whiteSpace=wrap;rounded=0;" parent="1" vertex="1">
          <mxGeometry x="510" y="134" width="60" height="30" as="geometry" />
        </mxCell>
        <mxCell id="_YHsfkz__0NLPyngDBoc-190" value="1..1" style="text;html=1;strokeColor=none;fillColor=none;align=center;verticalAlign=middle;whiteSpace=wrap;rounded=0;" parent="1" vertex="1">
          <mxGeometry x="360" y="531" width="60" height="30" as="geometry" />
        </mxCell>
        <mxCell id="_YHsfkz__0NLPyngDBoc-191" value="" style="endArrow=open;endFill=1;endSize=12;html=1;rounded=0;entryX=1.011;entryY=-0.244;entryDx=0;entryDy=0;entryPerimeter=0;exitX=-0.023;exitY=0.082;exitDx=0;exitDy=0;exitPerimeter=0;" parent="1" source="_YHsfkz__0NLPyngDBoc-28" target="_YHsfkz__0NLPyngDBoc-184" edge="1">
          <mxGeometry width="160" relative="1" as="geometry">
            <mxPoint x="930" y="344" as="sourcePoint" />
            <mxPoint x="1180" y="394" as="targetPoint" />
            <Array as="points">
              <mxPoint x="830" y="406" />
              <mxPoint x="830" y="192" />
            </Array>
          </mxGeometry>
        </mxCell>
        <mxCell id="_YHsfkz__0NLPyngDBoc-192" value="1..1" style="text;html=1;strokeColor=none;fillColor=none;align=center;verticalAlign=middle;whiteSpace=wrap;rounded=0;" parent="1" vertex="1">
          <mxGeometry x="750" y="154" width="60" height="30" as="geometry" />
        </mxCell>
        <mxCell id="_YHsfkz__0NLPyngDBoc-193" value="0..*" style="text;html=1;strokeColor=none;fillColor=none;align=center;verticalAlign=middle;whiteSpace=wrap;rounded=0;" parent="1" vertex="1">
          <mxGeometry x="905" y="374" width="60" height="30" as="geometry" />
        </mxCell>
        <mxCell id="_YHsfkz__0NLPyngDBoc-196" value="" style="endArrow=open;endFill=1;endSize=12;html=1;rounded=0;exitX=-0.007;exitY=0.094;exitDx=0;exitDy=0;exitPerimeter=0;entryX=0.912;entryY=0.01;entryDx=0;entryDy=0;entryPerimeter=0;" parent="1" source="q-JimnCEgB8Lu71b-h2X-754" target="_YHsfkz__0NLPyngDBoc-70" edge="1">
          <mxGeometry width="160" relative="1" as="geometry">
            <mxPoint x="2040" y="500" as="sourcePoint" />
            <mxPoint x="2200" y="500" as="targetPoint" />
            <Array as="points">
              <mxPoint x="2060" y="222" />
              <mxPoint x="2060" y="280" />
              <mxPoint x="1891" y="280" />
            </Array>
          </mxGeometry>
        </mxCell>
        <mxCell id="_YHsfkz__0NLPyngDBoc-197" value="1..1" style="edgeLabel;html=1;align=center;verticalAlign=middle;resizable=0;points=[];" parent="_YHsfkz__0NLPyngDBoc-196" vertex="1" connectable="0">
          <mxGeometry x="0.7683" y="-2" relative="1" as="geometry">
            <mxPoint x="11" y="-8" as="offset" />
          </mxGeometry>
        </mxCell>
        <mxCell id="_YHsfkz__0NLPyngDBoc-198" value="1..1" style="edgeLabel;html=1;align=center;verticalAlign=middle;resizable=0;points=[];" parent="_YHsfkz__0NLPyngDBoc-196" vertex="1" connectable="0">
          <mxGeometry x="-0.8051" y="3" relative="1" as="geometry">
            <mxPoint x="4" y="-15" as="offset" />
          </mxGeometry>
        </mxCell>
        <mxCell id="_YHsfkz__0NLPyngDBoc-199" value="" style="endArrow=open;endFill=1;endSize=12;html=1;rounded=0;entryX=1;entryY=0;entryDx=0;entryDy=0;exitX=0.007;exitY=0.912;exitDx=0;exitDy=0;exitPerimeter=0;" parent="1" source="q-JimnCEgB8Lu71b-h2X-757" target="_YHsfkz__0NLPyngDBoc-39" edge="1">
          <mxGeometry width="160" relative="1" as="geometry">
            <mxPoint x="1920" y="500" as="sourcePoint" />
            <mxPoint x="2080" y="500" as="targetPoint" />
            <Array as="points">
              <mxPoint x="2060" y="310" />
              <mxPoint x="2060" y="574" />
            </Array>
          </mxGeometry>
        </mxCell>
        <mxCell id="_YHsfkz__0NLPyngDBoc-200" value="1..1" style="edgeLabel;html=1;align=center;verticalAlign=middle;resizable=0;points=[];" parent="_YHsfkz__0NLPyngDBoc-199" vertex="1" connectable="0">
          <mxGeometry x="-0.8566" relative="1" as="geometry">
            <mxPoint y="-11" as="offset" />
          </mxGeometry>
        </mxCell>
        <mxCell id="_YHsfkz__0NLPyngDBoc-201" value="1..1" style="edgeLabel;html=1;align=center;verticalAlign=middle;resizable=0;points=[];" parent="_YHsfkz__0NLPyngDBoc-199" vertex="1" connectable="0">
          <mxGeometry x="0.8842" y="2" relative="1" as="geometry">
            <mxPoint y="-16" as="offset" />
          </mxGeometry>
        </mxCell>
        <mxCell id="-nGJ3yFkkv6u8jmLLinU-1" value="" style="endArrow=block;dashed=1;endFill=0;endSize=12;html=1;rounded=0;entryX=0.081;entryY=0.008;entryDx=0;entryDy=0;entryPerimeter=0;" edge="1" parent="1" target="q-JimnCEgB8Lu71b-h2X-644">
          <mxGeometry width="160" relative="1" as="geometry">
            <mxPoint x="1900" y="820" as="sourcePoint" />
            <mxPoint x="1930" y="920" as="targetPoint" />
          </mxGeometry>
        </mxCell>
        <mxCell id="-nGJ3yFkkv6u8jmLLinU-2" value="" style="endArrow=block;dashed=1;endFill=0;endSize=12;html=1;rounded=0;entryX=0.75;entryY=0;entryDx=0;entryDy=0;exitX=0.45;exitY=0.992;exitDx=0;exitDy=0;exitPerimeter=0;" edge="1" parent="1" source="q-JimnCEgB8Lu71b-h2X-689" target="q-JimnCEgB8Lu71b-h2X-644">
          <mxGeometry width="160" relative="1" as="geometry">
            <mxPoint x="1770" y="920" as="sourcePoint" />
            <mxPoint x="1930" y="920" as="targetPoint" />
          </mxGeometry>
        </mxCell>
        <mxCell id="-nGJ3yFkkv6u8jmLLinU-3" value="" style="endArrow=block;dashed=1;endFill=0;endSize=12;html=1;rounded=0;exitX=1;exitY=0.5;exitDx=0;exitDy=0;entryX=0;entryY=0.25;entryDx=0;entryDy=0;" edge="1" parent="1" source="_YHsfkz__0NLPyngDBoc-114" target="q-JimnCEgB8Lu71b-h2X-644">
          <mxGeometry width="160" relative="1" as="geometry">
            <mxPoint x="1770" y="920" as="sourcePoint" />
            <mxPoint x="1930" y="920" as="targetPoint" />
          </mxGeometry>
        </mxCell>
        <mxCell id="-nGJ3yFkkv6u8jmLLinU-4" value="" style="endArrow=block;dashed=1;endFill=0;endSize=12;html=1;rounded=0;exitX=0;exitY=0.5;exitDx=0;exitDy=0;entryX=1;entryY=0.372;entryDx=0;entryDy=0;entryPerimeter=0;" edge="1" parent="1" source="J-kP-sCgBBUiAvnzwSTB-7" target="q-JimnCEgB8Lu71b-h2X-644">
          <mxGeometry width="160" relative="1" as="geometry">
            <mxPoint x="2000" y="930" as="sourcePoint" />
            <mxPoint x="2160" y="930" as="targetPoint" />
          </mxGeometry>
        </mxCell>
        <mxCell id="-nGJ3yFkkv6u8jmLLinU-5" value="" style="endArrow=block;dashed=1;endFill=0;endSize=12;html=1;rounded=0;entryX=1;entryY=0.75;entryDx=0;entryDy=0;exitX=0.004;exitY=0.835;exitDx=0;exitDy=0;exitPerimeter=0;" edge="1" parent="1" source="q-JimnCEgB8Lu71b-h2X-593" target="q-JimnCEgB8Lu71b-h2X-644">
          <mxGeometry width="160" relative="1" as="geometry">
            <mxPoint x="1890" y="890" as="sourcePoint" />
            <mxPoint x="2050" y="890" as="targetPoint" />
          </mxGeometry>
        </mxCell>
        <mxCell id="-nGJ3yFkkv6u8jmLLinU-6" value="" style="endArrow=block;dashed=1;endFill=0;endSize=12;html=1;rounded=0;entryX=0;entryY=0.75;entryDx=0;entryDy=0;exitX=1.024;exitY=0.145;exitDx=0;exitDy=0;exitPerimeter=0;" edge="1" parent="1" source="_YHsfkz__0NLPyngDBoc-140" target="q-JimnCEgB8Lu71b-h2X-644">
          <mxGeometry width="160" relative="1" as="geometry">
            <mxPoint x="1680" y="1020" as="sourcePoint" />
            <mxPoint x="1840" y="1020" as="targetPoint" />
          </mxGeometry>
        </mxCell>
      </root>
    </mxGraphModel>
  </diagram>
</mxfile>
